<svg xmlns="http://www.w3.org/2000/svg" viewBox="0 0 1208 1208"><path fill-rule="evenodd" d="M692.5 1137.99c-2.2-.46-6.475-1.94-9.5-3.28-3.025-1.35-7.868-2.95-10.763-3.57s-7.845-2.42-11-4c-3.155-1.59-8.437-3.64-11.737-4.56-3.3-.93-8.7-2.96-12-4.52-3.3-1.55-8.925-3.74-12.5-4.86-8.075-2.53-23.882-9.03-34.652-14.25-4.484-2.17-8.808-3.95-9.609-3.95s-3.883-1.29-6.848-2.87-8.764-4.08-12.886-5.57c-4.123-1.48-8.173-3.28-9-4-.828-.72-3.98-2.09-7.005-3.04-3.025-.96-8.237-3.25-11.581-5.09-3.345-1.84-8.295-4.08-11-4.98s-6.963-2.93-9.462-4.52c-2.498-1.58-6.384-3.52-8.635-4.32-2.252-.79-5.832-2.5-7.958-3.8-2.125-1.29-8.814-4.72-14.864-7.62-6.05-2.89-13.25-6.44-16-7.88a11895 11895 0 0 0-29.5-15.45c-29.877-15.57-38.671-20.27-40-21.38-.825-.69-3.877-2.44-6.783-3.9-2.906-1.456-7.631-4.145-10.5-5.975s-6.291-3.664-7.603-4.077c-1.313-.412-4.306-2.215-6.653-4.006s-5.493-3.564-6.992-3.94c-1.499-.377-5.14-2.229-8.093-4.118-2.952-1.888-6.948-4.094-8.881-4.902s-5.919-3.064-8.858-5.015S325.98 965 325.598 965s-3.459-1.836-6.838-4.08-8.275-5.161-10.881-6.481-5.027-2.87-5.381-3.442-3.259-2.362-6.456-3.976c-3.196-1.613-6.454-3.576-7.24-4.361-.785-.786-3.252-2.359-5.481-3.496s-5.378-3.183-6.996-4.544c-1.619-1.362-5.391-3.633-8.384-5.047s-7.466-3.914-9.941-5.556-5.175-3.285-6-3.653-2.175-1.233-3-1.924-5.325-3.594-10-6.452-8.725-5.518-9-5.909-2.975-2.172-6-3.957c-10.737-6.335-12.545-7.497-16.5-10.598-2.2-1.726-6.418-4.383-9.373-5.905s-7.511-4.421-10.125-6.443-6.158-4.443-7.877-5.379c-2.844-1.551-3.125-2.146-3.125-6.607 0-4.041.852-6.379 4.844-13.297 2.665-4.616 6.04-10.143 7.5-12.283 1.461-2.139 2.656-4.473 2.656-5.186s2.025-4.255 4.5-7.871c2.475-3.615 4.5-6.914 4.5-7.331s1.061-2.325 2.357-4.24 4.258-7.082 6.581-11.482 4.792-8.675 5.488-9.5c.695-.825 2.716-4.425 4.491-8s4.315-8.528 5.644-11.007c3.835-7.152 4.855-14.806 2.967-22.259-.869-3.429-2.656-8.484-3.973-11.234-9.922-20.722-13.936-29.656-15.221-33.872-.816-2.68-3.025-8.378-4.909-12.662S201 688.217 201 687.045s-1.77-7.624-3.934-14.338c-5.484-17.02-12.654-46.75-15.002-62.207-6.336-41.709-7.201-54.078-7.207-103-.004-39.876 1.074-63.652 3.65-80.5.799-5.225 2.598-19.4 3.997-31.5s3.639-27.625 4.977-34.5 3.172-16.775 4.075-22 3.397-16.275 5.543-24.555c2.145-8.28 3.901-15.966 3.901-17.08 0-1.115 1.735-7.84 3.856-14.946s4.167-15.332 4.549-18.282 1.753-8.125 3.047-11.5c2.537-6.617 8.308-23.806 14.556-43.352 2.147-6.718 4.524-13.468 5.282-15s2.41-6.385 3.671-10.785c1.262-4.4 2.679-8.487 3.149-9.082s2.466-5.095 4.435-10 4.616-11.168 5.882-13.918 3.115-7.25 4.107-10c.993-2.75 2.392-5.698 3.11-6.551s2.67-4.861 4.339-8.907c1.668-4.046 3.507-7.928 4.086-8.625s4.912-8.84 9.63-18.093c14.623-28.683 15.723-30.725 18.551-34.42 1.512-1.976 2.75-4.008 2.75-4.516 0-2.491 9.477-11.417 15.363-14.469l6.428-3.332 8.354 3.865c4.595 2.126 10.66 5.707 13.478 7.957s8.385 6.566 12.373 9.591 7.983 6.317 8.878 7.315c.894.999 7.868 8.199 15.497 16 17.076 17.463 34.786 36.531 44.332 47.733 17.712 20.784 20.158 23.771 22.517 27.498 1.377 2.175 4.028 5.808 5.892 8.074 1.863 2.265 5.078 6.54 7.144 9.5s4.857 6.955 6.203 8.88 3.671 5.525 5.166 8 4.146 6.3 5.891 8.5 3.746 5.125 4.447 6.5c1.336 2.623 8.266 13.702 13.787 22.042 1.787 2.701 3.25 5.287 3.25 5.748s2.049 3.893 4.553 7.627 7.708 13.83 11.563 22.436 7.578 16.547 8.274 17.647c1.536 2.428 4.61 11.755 4.61 13.988 0 2.592 2.866 7.411 7.212 12.126 7.511 8.149 9.105 5.532 8.999-14.774-.079-15.008-.434-17.273-6.256-39.96-1.075-4.191-1.955-8.728-1.955-10.081s-1.125-4.674-2.5-7.38-3.424-7.619-4.553-10.919c-1.128-3.3-3.555-8.475-5.393-11.5s-4.084-7.3-4.993-9.5c-.908-2.2-2.902-5.575-4.43-7.5C506.38 196.276 500 185.233 500 183.465c0-2.41 4.383-2.757 27.356-2.161 30.947.801 74.972 6.218 94.644 11.645 5.775 1.593 13.231 3.386 16.57 3.985 3.338.599 9.413 2.24 13.5 3.647a541 541 0 0 0 14.93 4.852c4.125 1.26 9.3 2.984 11.5 3.829s7.825 2.98 12.5 4.742c11.602 4.374 58.12 27.732 65.416 32.848 3.253 2.281 6.346 4.148 6.873 4.148 1.35 0 13.389 8.6 18.439 13.172 2.325 2.106 4.638 3.828 5.141 3.828.502 0 3.014 1.736 5.582 3.858 4.516 3.732 14.85 8.174 16.103 6.921.338-.337.854-2.399 1.146-4.58.408-3.039.093-4.406-1.347-5.846-1.034-1.034-2.981-3.449-4.328-5.367-7.36-10.484-28.613-33.33-37.975-40.821-2.503-2.002-7.319-6.134-10.704-9.182s-7.435-6.191-9-6.983-5.208-2.91-8.095-4.707-8.287-4.835-12-6.751-7.876-4.14-9.251-4.943c-5.466-3.189-22.918-10.511-30-12.586-7.934-2.324-10.373-3.899-12.545-8.099-1.283-2.483-1.101-2.821 4.353-8.1 3.131-3.031 7.11-6.477 8.843-7.659 3.839-2.619 8.842-6.858 16.816-14.244 6.291-5.829 19.298-15.899 25.195-19.507 1.884-1.153 4.868-3.454 6.632-5.112 1.763-1.659 8.156-6.355 14.206-10.436s12.35-8.333 14-9.45c12.166-8.233 15.475-10.374 19-12.294 2.2-1.198 7.6-4.393 12-7.1s11.574-6.75 15.942-8.986c4.368-2.235 8.643-4.665 9.5-5.401 2.258-1.939 22.113-11.269 26.676-12.536 5.682-1.578 15.067-1.332 18.917.495 2.748 1.304 3.71 2.673 5.444 7.75 4.012 11.747 6.114 27.025 6.969 50.666.997 27.535-.277 76.739-2.356 91-2.256 15.479-4.323 32.866-5.587 47-.615 6.875-1.53 14.075-2.033 16-2.577 9.862-5.037 24.202-5.144 29.989-.144 7.779 1.355 11.149 10.138 22.805 3.319 4.404 6.034 8.344 6.034 8.754s1.637 2.744 3.638 5.186 4.919 6.945 6.486 10.009 3.487 6.286 4.268 7.163c1.565 1.757 4.149 6.606 9.931 18.638 2.103 4.376 5.223 10.639 6.935 13.918s3.89 8.68 4.843 12 2.896 9.1 4.318 12.842c1.423 3.742 3.693 13.228 5.044 21.08 1.352 7.852 2.934 15.53 3.516 17.062 3.059 8.045 3.133 46.763.121 63.185-2.186 11.922-3.275 30.129-2.892 48.369l.409 19.5 4.041 10.278c2.223 5.653 5.459 12.466 7.192 15.14 1.732 2.674 3.15 5.162 3.15 5.53 0 .841 7.077 10.009 13.008 16.851 2.48 2.861 5.608 6.776 6.952 8.701s2.715 3.725 3.047 4c1.585 1.315 9.925 17.129 11.601 22 1.656 4.814 1.883 8.431 1.821 29-.04 13.365-.605 26.95-1.311 31.5-2.172 13.995-8.154 36.792-11.284 43-1.663 3.3-3.87 8.399-4.903 11.33s-3.407 7.432-5.275 10c-1.869 2.569-4.186 6.217-5.15 8.108-.963 1.891-4.509 6.968-7.879 11.282-3.37 4.313-7.324 9.516-8.787 11.561-3.098 4.333-18.402 18.564-23.939 22.262-2.094 1.399-5.277 3.874-7.073 5.5s-5.18 4.082-7.521 5.457c-2.34 1.375-9.231 5.55-15.312 9.277s-13.308 7.664-16.058 8.748-6 2.605-7.219 3.38-6.043 2.604-10.718 4.066-9.85 3.115-11.5 3.673l-12 4.051a9087 9087 0 0 0-12 4.058c-7.323 2.491-21.7 5.803-29.5 6.797-4.675.596-10.812 1.726-13.638 2.512-8.648 2.405-19.379 4.194-29.79 4.966-8.388.622-10.277 1.086-12.18 2.989-3.487 3.487-4.698 9.5-3.489 17.324 3.21 20.78 3.862 90.799 1.119 120.159-1.392 14.9-8.678 61.08-11.043 70-1.095 4.12-2.891 11.55-3.993 16.5-3.025 13.59-3.953 16.5-5.276 16.51-.666.01-2.11.2-3.21.42-1.1.21-3.8.02-6-.44M590.316 912.856c2.968-1.554 7.994-7.135 12.928-14.356 5.76-8.43 17.953-24.466 26.231-34.5 8.678-10.517 30.095-31.881 37.291-37.197 2.946-2.176 5.587-4.559 5.87-5.296s2.168-2.466 4.189-3.843 4.904-3.551 6.406-4.833 5.45-4.356 8.773-6.831a528 528 0 0 0 11.975-9.25c3.263-2.612 6.301-4.75 6.749-4.75.449 0 2.517-1.402 4.597-3.116 2.079-1.714 5.894-4.315 8.478-5.781 6.494-3.683 13.005-7.713 22.159-13.714 4.288-2.811 8.931-5.396 10.317-5.744 1.646-.413 2.903-1.728 3.621-3.788 2.572-7.377.653-10.367-6.126-9.543-7.372.896-26.871 6.569-31.532 9.174-2.454 1.372-6.226 2.969-8.381 3.55-2.156.58-6.044 2.373-8.64 3.983-2.597 1.611-6.321 3.629-8.276 4.484-8.035 3.517-23.911 12.93-27.757 16.457-1.821 1.671-3.566 3.038-3.878 3.038s-2.197 1.383-4.188 3.074c-1.992 1.69-6.322 5.089-9.622 7.553-8.598 6.421-32.533 29.558-39.696 38.373-3.352 4.125-6.817 8.175-7.699 9-.883.825-2.833 3.3-4.333 5.5s-4.958 7.15-7.684 11c-6.329 8.94-15.72 25.204-17.554 30.403-1.448 4.106-1.13 6.672 1.539 12.416 2.292 4.93 9.255 7.149 14.243 4.537m-33.02-102.787c10.547-8.576 20.795-16.455 24.806-19.069a436 436 0 0 0 7.616-5.106c11.065-7.623 53.082-29.889 56.422-29.898.748-.002 2.765-.86 4.482-1.907 4.453-2.716 29.585-12.599 37.878-14.897 3.85-1.066 12.175-3.553 18.5-5.526s13.975-4.26 17-5.083c7.287-1.982 18.405-8.721 18.811-11.401.2-1.32-.596-2.651-2.225-3.718-2.242-1.469-5.527-1.615-28.311-1.256-24.062.378-26.174.56-31.775 2.732-3.3 1.28-9.887 3.163-14.638 4.185-10.707 2.302-42.763 15.024-53.862 21.376-1.375.787-4.975 2.601-8 4.032-3.025 1.43-6.625 3.229-8 3.998-8.533 4.771-12.91 7.477-18.547 11.469a5122 5122 0 0 1-15.162 10.677c-4.843 3.398-9.927 7.383-11.298 8.856-1.371 1.474-3.478 3.06-4.682 3.525-2.688 1.039-9.832 9.92-12.669 15.749l-2.096 4.308 1.977 3.692c1.088 2.031 4.118 5.123 6.734 6.871 5.958 3.983 8.316 3.484 17.039-3.609m-21.668-89.612c2.13-.849 6.122-2.637 8.872-3.973 2.75-1.337 7.925-3.145 11.5-4.018 3.575-.874 9.2-2.658 12.5-3.966s10.95-3.332 17-4.499 14.15-3.173 18-4.46c9.21-3.079 10.019-3.244 27.243-5.559 8.116-1.091 18.132-2.639 22.257-3.441s14.475-1.942 23-2.532c22.321-1.548 42.15-3.889 43.679-5.158 1.838-1.525 1.645-3.808-.639-7.552-2.75-4.511-6.374-6.059-20.573-8.786-21.54-4.138-34.3-4.978-54.268-3.576-9.693.68-20.116 1.654-23.162 2.163s-9.917 1.594-15.27 2.411c-5.354.817-13.973 2.844-19.154 4.504-5.182 1.659-11.954 3.486-15.051 4.058s-8.652 2.401-12.346 4.063c-3.694 1.663-9.416 3.957-12.716 5.098-7.875 2.723-24.236 11.317-27.873 14.641-3.33 3.042-5.692 7.973-5.135 10.717.213 1.05.651 3.157.973 4.683 1.063 5.036 3.803 6.725 10.913 6.725 3.508 0 8.12-.694 10.25-1.543m231.081-121.256c1.759-1.118 5.765-10.677 7.656-18.265 2.583-10.368 2.198-26.227-.918-37.885-6.736-25.195-10.686-32.284-22.949-41.175-9.18-6.657-13.208-8.194-22.738-8.677-15.41-.781-16.758 2.519-9.723 23.792 2.221 6.715 4.702 15.201 5.515 18.858 1.264 5.694 4.501 15.436 7.526 22.651.461 1.1 1.344 3.984 1.962 6.41.618 2.425 2.523 6.925 4.235 10 4.362 7.836 15.403 21.848 18.573 23.57 2.87 1.559 8.912 1.96 10.861.721M1063 852.49c-3.34-2.347-6.58-5.033-16.88-14.019-7.6-6.632-15.37-12.854-19.62-15.717-2.2-1.482-6.48-4.732-9.5-7.222s-8.42-6.483-12-8.873c-9.802-6.555-14-11.296-14-15.808 0-4.383 1.747-6.411 6.703-7.78 6.737-1.859 11.227-.105 26.797 10.461 2.75 1.867 7.4 5.022 10.33 7.013s7.71 5.719 10.63 8.287c2.92 2.567 9.52 8.262 14.67 12.654 17.25 14.702 22.05 20.987 20.46 26.817-1.61 5.929-11.69 8.329-17.59 4.187m24.43-78.541c-2.23-.43-7.63-2.132-12-3.782-14.85-5.616-27.91-10.314-38.43-13.824-12.75-4.253-21.95-8.529-24.56-11.408-1.31-1.452-1.94-3.593-1.94-6.627 0-3.712.5-4.912 2.92-6.993 2.7-2.323 3.41-2.459 9.4-1.817 3.57.381 8.55 1.295 11.08 2.03 6.33 1.838 25.52 8.803 31.6 11.465 2.75 1.205 8.15 3.331 12 4.725 12.1 4.378 20.46 9.042 21.62 12.063 1.31 3.392.56 10.999-1.26 12.698-1.96 1.833-5.76 2.368-10.43 1.47m-71.41-88.233c-1.36-.691-3.07-2.372-3.79-3.736-1.41-2.671-1.03-9.576.61-11.221 2.09-2.093 10.62-2.673 39.94-2.715 34.71-.05 36.63.274 37.77 6.374.79 4.216-.09 8.399-2.28 10.832-1.45 1.602-4.46 1.749-35.67 1.735-25.34-.011-34.74-.337-36.58-1.269"/></svg>