<?xml version='1.0' encoding='utf-8'?>
<!-- Generator: imaengine 6.0   -->
<svg xmlns:xlink="http://www.w3.org/1999/xlink" xmlns="http://www.w3.org/2000/svg" viewBox="0,0,1208,1206" style="enable-background:new 0 0 1208 1206;" version="1.1">
<defs/>
<g id="layer0">
<path d="M682.5,1124.2C680.3,1123.32 678.275,1122.32 678,1121.97C677.48,1121.3 671.1,1119.42 664.935,1118.1C662.975,1117.68 659.6,1116.39 657.435,1115.23C651.851,1112.25 647.256,1110.48 641.5,1109.1C638.75,1108.44 634.876,1106.78 632.892,1105.41C630.907,1104.04 627.082,1102.57 624.392,1102.14C621.701,1101.71 616.125,1099.76 612,1097.79C607.875,1095.83 602.025,1093.42 599,1092.44C595.975,1091.46 591.925,1089.69 590,1088.51C585.556,1085.78 578.524,1083 576.063,1083C575.02,1083 574.017,1082.65 573.833,1082.23C573.364,1081.15 560.565,1075 558.781,1075C557.181,1075 550.811,1072.08 550,1070.98C549.725,1070.6 547.025,1069.51 544,1068.56C537.633,1066.55 531.72,1064.02 531,1062.99C530.076,1061.67 524.118,1059 522.109,1059C521.014,1059 519.84,1058.55 519.5,1058C519.16,1057.45 518.026,1057 516.98,1057C515.934,1057 514.273,1056.15 513.289,1055.12C511.291,1053.02 503.377,1049 501.245,1049C500.487,1049 498.434,1047.91 496.683,1046.58C494.932,1045.25 491.062,1043.2 488.082,1042.03C485.102,1040.86 481.419,1039.01 479.898,1037.93C478.377,1036.84 474.381,1034.92 471.017,1033.66C467.654,1032.39 464.035,1030.62 462.976,1029.71C460.917,1027.95 448.708,1022 447.149,1022C446.635,1022 445.975,1021.38 445.683,1020.62C445.391,1019.86 441.935,1018 438.003,1016.5C434.071,1015 429.696,1012.7 428.281,1011.38C426.866,1010.07 425.113,1009 424.385,1009C422.728,1009 414.617,1004.87 414.167,1003.79C413.983,1003.36 413.196,1003 412.417,1003C411.637,1003 410.998,1002.66 410.996,1002.25C410.994,1001.84 408.857,1000.65 406.246,999.603C403.636,998.56 400.15,996.711 398.5,995.495C396.85,994.279 393.025,992.085 390,990.621C386.975,989.156 382.7,986.652 380.5,985.056C378.3,983.461 375.375,981.927 374,981.646C372.625,981.366 370.6,980.315 369.5,979.311C366.471,976.544 362.794,974.389 359.883,973.673C358.444,973.318 355.069,971.537 352.383,969.714C349.697,967.891 345.362,965.49 342.748,964.379C340.135,963.267 336.974,961.49 335.724,960.429C334.474,959.368 331.357,957.509 328.797,956.297C326.236,955.086 322.05,952.498 319.494,950.547C316.938,948.596 314.153,947 313.305,947C312.458,947 310.176,945.606 308.235,943.901C306.294,942.197 302.679,939.934 300.201,938.872C297.724,937.81 294.175,935.604 292.314,933.971C290.453,932.337 288.252,931 287.423,931C286.594,931 285.372,930.545 284.708,929.989C284.044,929.433 281.925,927.641 280,926.005C278.075,924.37 275.697,923.025 274.715,923.016C272.814,922.999 268.774,920.672 265.52,917.719C264.431,916.731 262.518,915.666 261.27,915.353C260.021,915.04 259,914.382 259,913.892C259,913.401 258.395,913 257.656,913C256.916,913 255.004,911.831 253.406,910.403C251.807,908.974 248.545,906.909 246.156,905.814C242.351,904.07 240.073,902.489 235.617,898.5C235.003,897.95 232.472,896.511 229.994,895.302C227.516,894.093 224.556,892.235 223.417,891.174C222.278,890.113 220.442,888.958 219.338,888.607C218.233,888.257 215.602,886.433 213.49,884.554C211.378,882.675 207.744,880.41 205.413,879.52C203.082,878.63 199.583,876.399 197.636,874.563C195.689,872.727 192.098,870.257 189.655,869.075C186.987,867.783 184.977,866.042 184.62,864.713C183.61,860.945 183.938,856.205 185.305,854.821C186.023,854.095 188.054,850.527 189.819,846.892C191.584,843.258 193.878,839.515 194.917,838.575C195.956,837.634 197.771,834.285 198.951,831.132C200.13,827.978 202.649,823.652 204.547,821.517C206.446,819.383 208,816.921 208,816.046C208,815.171 209.266,812.891 210.813,810.978C212.36,809.065 214.227,805.925 214.961,804C216.262,800.59 221.809,791.001 223.059,790C223.402,789.725 224.464,787.434 225.417,784.909C226.37,782.383 228.129,779.233 229.325,777.909C233.387,773.41 236.498,761.687 235.406,755C234.494,749.422 231.868,741.793 229.554,738C228.38,736.075 226.682,732.7 225.782,730.5C221.359,719.696 220.564,718 219.921,718C219.539,718 217.731,713.388 215.904,707.75C214.077,702.112 212.329,697.275 212.02,697C210.964,696.059 208.868,690.618 207.998,686.558C206.426,679.23 204.989,673.961 204.087,672.216C203.599,671.272 202.438,667.8 201.508,664.5C200.577,661.2 199.434,657.15 198.968,655.5C198.502,653.85 197.815,650.7 197.442,648.5C196.705,644.159 194.732,636.276 193.186,631.5C191.526,626.367 189.267,612.831 187.013,594.5C186.608,591.2 185.782,585.125 185.179,581C180.708,550.424 180.899,466.068 185.51,435C187.072,424.479 188.525,413.119 190.053,399.5C192.113,381.13 192.944,375.331 194.491,368.5C195.364,364.65 196.729,357.45 197.526,352.5C199.847,338.087 200.882,332.856 202.575,327C205.821,315.772 208,306.678 208,304.356C208,303.041 209.281,298.036 210.847,293.233C214.297,282.654 216,275.803 216,272.506C216,270.136 217.667,265.017 220.609,258.349C221.374,256.616 222,254.472 222,253.585C222,252.698 222.408,251.191 222.906,250.236C223.404,249.281 224.62,245.575 225.608,242C226.596,238.425 227.687,235.275 228.034,235C228.765,234.42 231.22,227.107 233.572,218.5C234.474,215.2 235.792,211.15 236.501,209.5C239.051,203.564 239.865,201.424 241.42,196.572C242.289,193.861 243,191.04 243,190.302C243,189.564 244.024,187.282 245.276,185.23C246.528,183.179 248.384,179.025 249.401,176C250.418,172.975 252.993,166.797 255.125,162.27C257.256,157.744 259,153.334 259,152.472C259,151.61 260.594,148.412 262.542,145.367C264.49,142.321 266.363,138.406 266.703,136.665C267.044,134.924 268.311,132.15 269.519,130.5C271.926,127.212 275,121.211 275,119.798C275,119.306 276.598,116.406 278.551,113.352C280.505,110.299 283.046,105.279 284.199,102.197C285.352,99.1154 287.354,95.4523 288.648,94.0571C289.942,92.662 291,91.0379 291,90.448C291,88.7556 294.652,81.702 296.669,79.5C297.676,78.4 299.4,75.7763 300.5,73.6696C304.013,66.9424 310.138,61.4604 318.231,57.8016L321.988,56.1032L329.984,60.0516C334.381,62.2232 338.321,64.0032 338.74,64.0071C339.158,64.011 341.3,65.789 343.5,67.9581C345.7,70.1272 347.977,71.924 348.56,71.9509C349.143,71.9779 350.943,73.264 352.56,74.8089C354.177,76.3538 357.637,79.1301 360.25,80.9785C362.863,82.8268 365,84.6428 365,85.014C365,86.0549 369.458,91 370.396,91C370.854,91 372.864,92.8731 374.864,95.1625C376.864,97.4519 384.125,105.108 391,112.176C407.275,128.909 415.605,137.906 417.685,141C418.609,142.375 421.032,145.075 423.069,147C425.106,148.925 427.209,151.342 427.744,152.371C428.72,154.252 432.503,158.815 439,165.948C440.925,168.062 443.4,171.493 444.5,173.572C445.6,175.652 448.188,179.11 450.25,181.258C452.312,183.406 454,185.62 454,186.178C454,186.736 455.8,189.238 458,191.737C460.2,194.237 462,196.785 462,197.401C462,198.017 463.061,199.665 464.358,201.063C465.655,202.462 467.946,205.832 469.45,208.553C470.954,211.274 473.309,214.692 474.683,216.15C476.058,217.607 478.212,220.982 479.47,223.65C480.729,226.317 482.713,229.494 483.879,230.708C485.046,231.923 486,233.385 486,233.958C486,234.531 486.45,235 487,235C487.55,235 488,235.884 488,236.965C488,238.046 489.258,240.409 490.796,242.215C492.333,244.022 494.451,247.466 495.501,249.869C496.552,252.272 498.889,256.097 500.696,258.369C502.502,260.641 503.985,262.9 503.99,263.389C503.996,263.877 505.738,267.927 507.862,272.389C509.986,276.85 512.51,282.3 513.47,284.5C516.876,292.303 518.509,295.504 519.252,295.834C519.665,296.017 520.287,297.94 520.633,300.106C520.979,302.272 521.654,304.286 522.131,304.581C522.609,304.876 523,306.599 523,308.409C523,311.801 526.213,317.041 531.488,322.25C535.018,325.736 535.587,325.698 537.58,321.846C539.782,317.586 539.106,292.225 536.57,284C535.637,280.975 534.496,276.25 534.034,273.5C533.571,270.75 532.7,267.233 532.097,265.685C531.494,264.137 531,261.722 531,260.319C531,257.474 527.868,248 526.928,248C526.596,248 525.501,245.412 524.493,242.25C521.986,234.38 519.743,229 518.97,229C518.243,229 513,218.635 513,217.198C513,216.688 511.66,214.748 510.022,212.886C508.384,211.023 505.671,207.025 503.993,204C502.316,200.975 500.434,197.774 499.812,196.886C499.19,195.998 498.964,194.536 499.309,193.636C499.861,192.198 502.327,192 519.72,192C538.915,192 555.281,193.402 584,197.508C589.775,198.333 597.875,199.434 602,199.953C606.125,200.473 612.2,201.768 615.5,202.831C618.8,203.894 625.1,205.521 629.5,206.447C642.92,209.27 650.019,211.191 653.846,213.033C655.855,214.001 660.65,215.562 664.5,216.503C668.35,217.444 674.2,219.47 677.5,221.006C685.402,224.683 691.654,227 693.676,227C694.575,227 696.704,228.049 698.406,229.331C700.108,230.613 703.975,232.524 707,233.579C710.025,234.633 713.112,236.077 713.861,236.787C715.562,238.402 724.558,243 726.015,243C726.609,243 729.473,244.52 732.377,246.378C735.282,248.237 738.741,250.101 740.064,250.52C741.387,250.94 744.726,252.931 747.485,254.944C750.243,256.958 754.3,259.435 756.5,260.45C758.7,261.465 760.725,262.596 761,262.964C761.275,263.331 763.975,265.271 767,267.274C770.025,269.277 773.776,272.284 775.335,273.958C776.894,275.631 778.805,277 779.583,277C780.36,277 782.891,278.785 785.207,280.966C787.523,283.148 790.772,285.23 792.426,285.594C794.081,285.957 796.225,286.748 797.192,287.352C799.471,288.775 800.654,287.539 801.519,282.828C802.104,279.644 801.835,278.845 799.501,276.828C798.021,275.547 796.19,273.31 795.434,271.856C794.677,270.402 792.695,267.849 791.029,266.183C789.363,264.517 788,262.707 788,262.161C788,261.615 784.063,257.154 779.25,252.248C774.438,247.342 769.77,242.466 768.878,241.414C766.717,238.863 761.047,233.894 757.976,231.86C756.614,230.958 753.437,228.258 750.916,225.86C743.724,219.02 741.686,217.479 736.422,214.906C733.715,213.583 730.884,211.916 730.131,211.203C729.379,210.489 725.554,208.302 721.631,206.342C717.709,204.382 713.825,202.214 713,201.526C712.175,200.837 709.25,199.457 706.5,198.458C703.75,197.459 700.33,195.84 698.901,194.86C696.063,192.915 689.717,190.597 681.059,188.345C674.094,186.532 671.603,184.915 669.604,180.907L668.024,177.74L674.52,171.37C678.094,167.867 681.483,165 682.052,165C682.621,165 684.755,163.462 686.794,161.581C688.832,159.701 691.85,157.14 693.5,155.889C695.15,154.639 698.657,151.446 701.294,148.793C703.931,146.14 707.981,142.782 710.294,141.33C712.607,139.878 716.476,136.96 718.891,134.845C721.306,132.73 723.861,131 724.568,131C725.276,131 726.675,129.985 727.677,128.745C728.68,127.505 730.85,125.645 732.5,124.613C734.15,123.58 737.75,121.06 740.5,119.011C743.25,116.963 747.075,114.435 749,113.393C750.925,112.352 753.403,110.6 754.507,109.5C755.61,108.4 758.535,106.501 761.007,105.28C763.478,104.06 766.85,101.866 768.5,100.405C770.15,98.9441 773.075,97.0873 775,96.2786C776.925,95.4699 779.406,93.9734 780.512,92.953C781.619,91.9326 784.544,90.1921 787.012,89.0853C789.481,87.9785 792.721,86.0062 794.212,84.7025C795.704,83.3988 799.925,81.057 803.591,79.4987C807.258,77.9403 811.391,75.6156 812.775,74.3326C814.159,73.0497 815.834,72 816.497,72C817.16,72 819.907,70.8308 822.601,69.4019C825.295,67.9729 828.625,66.2294 830,65.5274C842.113,59.3432 857.594,59.6303 860.629,66.0954C864.039,73.3574 867.235,89.4585 868.649,106.5C870.769,132.03 869.285,195.967 866.166,213.5C864.349,223.709 863.037,234.135 862.451,243C861.801,252.845 859.049,274.085 858.254,275.387C857.956,275.875 856.892,280.375 855.89,285.387C853.58,296.931 853.498,305.126 855.651,309.3C857.311,312.519 867.719,327.067 869.028,328C869.414,328.275 870.029,329.456 870.393,330.625C870.757,331.794 872.618,334.359 874.528,336.326C876.438,338.292 878,340.193 878,340.549C878,342.186 881.638,348.813 884.14,351.733C885.663,353.512 887.451,356.774 888.113,358.983C888.775,361.193 889.644,363 890.043,363C891.046,363 896.994,374.786 897.026,376.836C897.04,377.751 898.61,380.947 900.515,383.938C902.421,386.928 904.249,390.978 904.579,392.938C905.229,396.802 908.047,405.192 908.966,406C910.542,407.386 915.892,432.38 915.964,438.691C915.984,440.446 916.394,442.125 916.875,442.423C920.303,444.541 921.437,485.313 918.574,503.5C915.108,525.52 914.824,528.845 914.683,549C914.552,567.778 914.72,569.962 916.684,575C917.863,578.025 919.38,582.075 920.056,584C923.041,592.51 924.508,595.661 926.57,598C927.783,599.375 929.066,601.466 929.422,602.647C929.778,603.828 931.598,606.415 933.467,608.396C935.336,610.378 937.116,612.789 937.422,613.754C937.728,614.719 940.653,618.319 943.922,621.754C947.191,625.189 950.151,628.9 950.5,630C950.849,631.1 951.507,632 951.963,632C952.418,632 953.633,633.688 954.662,635.75C955.691,637.812 957.989,642.032 959.769,645.126C964.499,653.351 965.479,659.172 965.469,679C965.459,698.087 963.894,716.102 961.429,725.5C960.563,728.8 959.241,733.975 958.491,737C957.741,740.025 956.651,744.392 956.069,746.704C955.487,749.017 954.121,752.392 953.035,754.204C950.561,758.331 948,763.934 948,765.221C948,767.151 944.501,773.541 942.346,775.547C941.136,776.673 939.347,779.591 938.37,782.033C937.393,784.474 935.647,787.378 934.489,788.486C933.332,789.594 931.428,792.075 930.258,794C929.089,795.925 926.527,799.051 924.566,800.946C922.605,802.842 921,804.904 921,805.53C921,806.65 918.924,808.819 910.687,816.304C908.384,818.396 905.108,821.453 903.408,823.096C901.707,824.739 898.615,826.994 896.537,828.108C894.459,829.222 891.697,831.395 890.4,832.937C889.102,834.479 886.569,836.334 884.77,837.06C882.972,837.785 880.587,839.306 879.471,840.439C878.355,841.573 874.755,843.839 871.471,845.476C868.187,847.114 863.935,849.701 862.022,851.226C860.109,852.752 857.768,854 856.82,854C855.871,854 851.677,855.8 847.5,858C843.323,860.2 839.053,862 838.012,862C836.97,862 835.879,862.387 835.586,862.86C835.294,863.334 833.002,864.002 830.494,864.346C827.986,864.69 823.586,866.055 820.717,867.381C814.93,870.055 805.688,873 803.085,873C802.158,873 800.973,873.358 800.45,873.795C798.191,875.684 782.521,879.588 773.717,880.456C767.922,881.026 762.834,882.052 753.5,884.532C746.078,886.505 734.823,888 727.405,888C721.568,888 720.54,888.306 718.07,890.776C715.155,893.692 713.408,900.634 714.456,905.145C717.698,919.098 719.035,976.773 716.927,1011.72C715.832,1029.87 715.67,1031.27 712.151,1053C711.038,1059.88 709.398,1070.67 708.506,1077C707.614,1083.33 706.523,1089.62 706.083,1091C703.698,1098.44 701.976,1105.49 700.482,1113.91C699.564,1119.09 698.212,1123.93 697.478,1124.66C695.683,1126.46 687.505,1126.21 682.5,1124.2ZM591.213,902.727C593.631,900.377 597.705,895.315 600.266,891.477C606.658,881.9 610.571,876.593 614.05,872.784C615.672,871.008 617,869.144 617,868.642C617,868.14 618.063,866.744 619.362,865.541C620.661,864.337 622.527,862.125 623.51,860.625C628.231,853.42 657.149,824.168 662.554,821.13C664.77,819.885 667.015,817.912 667.542,816.747C668.069,815.582 669.976,813.813 671.781,812.817C673.585,811.821 676.382,809.655 677.997,808.003C679.611,806.351 681.335,805 681.826,805C682.318,805 684.39,803.425 686.431,801.5C688.472,799.575 690.365,798 690.638,798C691.365,798 698.126,792.911 700.851,790.312C702.144,789.079 704.169,787.77 705.351,787.403C706.533,787.035 709.177,785.23 711.228,783.39C713.278,781.551 716.581,779.366 718.567,778.536C720.554,777.706 723.543,775.88 725.21,774.477C726.877,773.074 729.802,771.274 731.709,770.477C733.616,769.68 736.889,767.672 738.982,766.014C741.075,764.356 743.286,763 743.894,763C744.502,763 745,762.586 745,762.079C745,761.573 746.319,760.869 747.931,760.515C751.676,759.693 752.856,758.221 753.443,753.638C754.173,747.936 753.418,747 748.093,747C745.512,747 742.935,747.465 742.366,748.034C741.797,748.603 739.12,749.471 736.416,749.963C725.722,751.91 721.176,753.385 715,756.912C712.182,758.521 708.502,759.883 705.25,760.521C703.462,760.872 702,761.521 702,761.963C702,762.405 701.212,763.031 700.25,763.354C698.459,763.956 694.896,766.063 694,767.051C693.725,767.355 691.25,768.438 688.5,769.46C685.75,770.481 683.275,771.598 683,771.941C682.185,772.959 672.392,779 671.556,779C670.634,779 662.641,785.165 662.167,786.243C661.983,786.659 661.36,787 660.781,787C660.203,787 658.778,788.021 657.615,789.269C656.452,790.517 653.245,792.921 650.489,794.612C646.045,797.339 633.893,808.288 624.5,818.027C623.95,818.598 621.7,820.758 619.5,822.829C614.558,827.48 609.405,833.241 605.483,838.5C603.842,840.7 601.487,843.32 600.25,844.323C599.013,845.325 598,846.646 598,847.258C598,847.87 596.2,850.506 594,853.115C591.8,855.724 590,858.182 590,858.576C590,858.971 588.502,861.14 586.671,863.397C584.839,865.654 582.252,869.75 580.921,872.5C579.589,875.25 577.751,878.331 576.836,879.346C575.921,880.362 574.158,883.903 572.919,887.216C570.689,893.179 570.685,893.292 572.477,898.564C573.859,902.628 575.023,904.252 577.394,905.422C582.904,908.141 586.33,907.472 591.213,902.727ZM546.9,811C547.855,811 550.406,809.425 552.568,807.501C554.731,805.576 556.775,804.001 557.11,804.001C557.446,804 559.437,802.381 561.535,800.402C563.633,798.423 566.959,795.777 568.925,794.522C570.891,793.266 573.591,791.06 574.924,789.62C576.258,788.179 577.998,787 578.792,787C579.586,787 581.731,785.687 583.559,784.082C585.387,782.477 589.157,780.022 591.936,778.626C594.715,777.23 597.995,775.151 599.225,774.005C600.454,772.86 602.594,771.641 603.98,771.296C607.082,770.525 612.818,767.408 615.5,765.036C616.6,764.063 619.75,762.458 622.5,761.469C625.25,760.48 628.85,758.711 630.5,757.538C632.15,756.366 636.2,754.529 639.5,753.457C642.8,752.385 645.725,751.275 646,750.991C646.852,750.109 657.362,745.279 660,744.558C662.675,743.826 665.972,742.501 670,740.538C672.339,739.398 679.194,737.293 688.5,734.858C690.7,734.282 695.425,732.745 699,731.442C702.575,730.139 707.413,728.607 709.75,728.037C720.46,725.424 722.159,724.878 725.714,722.904C737.158,716.551 738.425,714.973 734.794,711.599C732.632,709.59 731.572,709.504 710.018,709.592C692.155,709.666 686.074,710.045 680.602,711.426C676.809,712.384 672.984,713.524 672.102,713.961C669.006,715.494 663.357,716.988 658.453,717.571C653.108,718.205 652.309,718.464 644,722.251C640.975,723.63 637.375,725.066 636,725.442C632.445,726.414 630.676,727.181 620,732.377C614.775,734.92 610.115,737 609.644,737C609.174,737 607.452,738.125 605.818,739.5C604.184,740.875 602.008,742 600.982,742C599.957,742 598.84,742.45 598.5,743C598.16,743.55 597.043,744 596.018,744C594.992,744 592.881,745.07 591.327,746.377C589.772,747.685 585.765,750.188 582.423,751.94C579.08,753.691 575.215,756.173 573.834,757.453C572.453,758.734 570.011,760.46 568.409,761.289C566.806,762.117 564.605,763.778 563.518,764.98C562.43,766.182 560.169,767.738 558.494,768.438C556.818,769.138 553.357,771.801 550.802,774.356C548.248,776.91 545.785,779.015 545.329,779.033C543.802,779.095 540.526,782.449 535.744,788.849C530.56,795.787 529.723,799.944 532.794,803.5C536.578,807.883 542.284,812.105 543.691,811.565C544.501,811.254 545.945,811 546.9,811ZM531.42,719.129C531.716,718.65 533.356,717.979 535.063,717.637C536.771,717.296 539.395,716.143 540.895,715.075C542.395,714.007 544.945,712.816 546.561,712.429C548.177,712.041 549.95,711.398 550.5,711C551.05,710.602 553.717,709.987 556.426,709.633C559.135,709.279 562.945,708.05 564.893,706.9C566.841,705.751 570.7,704.385 573.468,703.866C576.235,703.346 580.75,702.507 583.5,702C590.116,700.782 597.025,699.024 599.5,697.93C604.958,695.516 611.416,694.01 620.5,693.033C632.426,691.75 639.903,690.606 650,688.521C654.125,687.669 665.15,686.549 674.5,686.032C696.819,684.798 711.166,683.083 713.511,681.368C715.289,680.068 715.313,679.719 713.895,675.741C712.043,670.548 707.415,667.97 696.717,666.175C692.748,665.509 686.8,664.509 683.5,663.952C666.328,661.054 660.217,660.71 643.463,661.699C623.19,662.895 588.243,668.319 583.009,671.08C580.235,672.544 571.671,675 569.342,675C566.707,675 560.749,677.101 553.486,680.591C550.728,681.916 547.717,683 546.795,683C545.873,683 544.876,683.392 544.58,683.871C544.284,684.35 542.644,685.021 540.937,685.363C539.229,685.704 536.595,686.864 535.084,687.94C533.573,689.016 530.118,690.771 527.407,691.84C524.696,692.908 520.232,695.934 517.489,698.563C512.567,703.278 512.503,703.418 512.749,708.921C512.886,711.989 513.449,714.65 513.999,714.833C514.55,715.017 515,715.717 515,716.39C515,717.063 516.237,718.103 517.75,718.701C521.112,720.029 530.679,720.329 531.42,719.129ZM758.708,600.381C760.213,599.977 761.434,598.312 762.546,595.144C763.443,592.59 764.542,589.792 764.987,588.927C765.432,588.061 766.573,583.561 767.522,578.927C769.738,568.113 769.125,553.922 766.101,546C764.946,542.975 764.001,539.764 764.001,538.865C763.999,533.678 758.767,520.472 755.012,516.175C753.414,514.347 751.07,511.538 749.803,509.934C748.536,508.33 746.975,507.014 746.333,507.009C745.692,507.004 745.017,506.663 744.833,506.25C744.123,504.651 734.879,499.038 730.517,497.557C727.994,496.701 722.865,496 719.118,496C708.646,496 706.381,499.016 709.066,509.384C710.535,515.057 713,523.095 714.009,525.5C715.378,528.767 717.842,538.219 718.382,542.281C718.658,544.361 720.035,548.496 721.442,551.469C722.849,554.443 724,557.552 724,558.379C724,559.206 724.45,560.16 725,560.5C725.55,560.84 726,562.405 726,563.978C726,567.801 733.571,582.196 738.25,587.268C740.312,589.503 742,591.639 742,592.013C742,592.387 743.565,594.305 745.478,596.274C749.489,600.405 753.72,601.718 758.708,600.381ZM1050.23,848C1049.05,846.9 1047.5,845.996 1046.79,845.99C1046.08,845.985 1043.92,844.189 1042,842C1040.08,839.811 1038.01,838.015 1037.41,838.01C1036.82,838.004 1034.71,836.2 1032.74,834C1030.76,831.8 1028.74,830 1028.23,830C1027.73,830 1024.66,827.532 1021.41,824.515C1018.16,821.498 1014.92,819.023 1014.21,819.015C1013.5,819.007 1011.05,817.2 1008.76,815C1006.47,812.8 1004.14,811 1003.58,811C1003.02,811 1001.42,809.668 1000.03,808.039C998.639,806.41 995.362,803.996 992.748,802.674C990.134,801.352 985.724,798.145 982.947,795.547C978.12,791.032 977.911,790.618 978.199,786.162C978.473,781.913 978.821,781.343 982.126,779.727C987.469,777.114 995.545,778.246 1000.08,782.244C1001.96,783.898 1005.32,786.041 1007.55,787.006C1009.78,787.971 1012.94,790.052 1014.56,791.63C1016.19,793.209 1019.09,795.308 1021.01,796.295C1022.93,797.282 1026.35,799.757 1028.61,801.795C1036.35,808.779 1038.98,811 1039.53,811C1039.83,811 1041.85,812.752 1044.01,814.894C1046.17,817.035 1049.8,820.257 1052.07,822.054C1062.88,830.616 1067.42,837.962 1065.54,843.866C1064.89,845.909 1057.33,850 1054.2,850C1053.2,850 1051.41,849.1 1050.23,848ZM1062.5,767.436C1057.55,765.513 1049.45,762.59 1044.5,760.941C1039.55,759.293 1034.72,757.51 1033.78,756.979C1032.08,756.029 1025.3,753.708 1015.5,750.718C1007.66,748.327 999.746,743.729 997.837,740.461C996.469,738.118 996.289,736.652 996.99,733.543C998.221,728.085 1001.32,725.848 1007,726.328C1013.13,726.845 1023.27,728.993 1024.54,730.044C1025.12,730.516 1030.33,732.457 1036.14,734.358C1041.94,736.258 1049.57,739.143 1053.09,740.77C1056.62,742.396 1060.85,744.048 1062.5,744.442C1066.59,745.416 1081.6,752.815 1083.06,754.573C1083.71,755.354 1084.3,758.443 1084.37,761.437C1084.62,771.833 1078.29,773.571 1062.5,767.436ZM1002,684.338C998.387,681.849 998.029,681.049 998.047,675.5C998.074,667.119 997.742,667.205 1032.66,666.549C1064.79,665.945 1071.36,666.495 1074.22,670.023C1076.74,673.131 1076.58,680.028 1073.92,683.097L1071.83,685.5L1038.17,685.78C1007.67,686.033 1004.26,685.898 1002,684.338Z" fill-rule="evenodd" fill="#000000"/>
</g>
</svg>
