<?xml version='1.0' encoding='utf-8'?>
<!-- Generator: imaengine 6.0   -->
<svg xmlns:xlink="http://www.w3.org/1999/xlink" xmlns="http://www.w3.org/2000/svg" viewBox="0,0,1430,1143" style="enable-background:new 0 0 1430 1143;" version="1.1">
<defs/>
<g id="layer0" visibility="hidden">
<path d="M0,0L1430,0L1430,1143L0,1143L0,0Z" fill-rule="evenodd" fill="#FFFFFF"/>
</g>
<g id="layer1">
<path d="M6,1142.58C6,1141.03 13.3661,1138 17.118,1138.02C21.7297,1138.03 22.649,1138.41 24.8724,1141.25C26.16,1142.89 25.619,1143 16.1224,1143C10.5551,1143 6,1142.81 6,1142.58Z" fill-rule="evenodd" fill="#000000"/>
<path d="M62.1499,1142.52C62.4156,1142.25 68.2281,1141.56 75.0665,1140.99C81.9049,1140.42 91.1,1139.32 95.5,1138.55C110.575,1135.9 113.469,1135.76 119.055,1137.42C127.879,1140.04 129.967,1139.63 135.145,1134.25C137.658,1131.64 142.32,1126.35 145.504,1122.5C148.688,1118.65 151.499,1115.28 151.752,1115C152.004,1114.72 151.481,1116.26 150.59,1118.41C149.699,1120.56 146.389,1125.44 143.235,1129.26C140.081,1133.08 136.427,1137.73 135.115,1139.6L132.729,1143L123.972,1143C117.11,1143 115.089,1142.68 114.638,1141.5C113.883,1139.53 105.606,1139.52 97.5,1141.48C91.9272,1142.83 60.932,1143.73 62.1499,1142.52Z" fill-rule="evenodd" fill="#000000"/>
<path d="M141.518,1139.11C140.893,1135.41 141.107,1134.98 145.767,1130.62C149.046,1127.55 151.098,1124.62 151.951,1121.77C153.481,1116.65 158.545,1106.4 159.978,1105.51C161.543,1104.55 161.196,1103.2 159.25,1102.69C158.045,1102.37 158.278,1102.19 160,1102.08C162.399,1101.94 162.356,1101.85 158.963,1099.72C149.512,1093.79 141.349,1086.13 138.215,1080.25C133.428,1071.27 134.093,1071.49 118.784,1073.94C96.2437,1077.55 92.5596,1078.23 90.7454,1079.17C89.7804,1079.67 87.6595,1082.71 86.0323,1085.94C84.4051,1089.16 81.9041,1092.72 80.4744,1093.84C74.4326,1098.59 64.8725,1099.18 59.2088,1095.15C56.2119,1093.01 52.0131,1085.52 51.9847,1082.26C51.9763,1081.29 51.5801,1079.89 51.1043,1079.13C49.1095,1075.99 28.0781,1072.79 22.8379,1074.84C20.7407,1075.66 19.8187,1077.11 18.4937,1081.67C15.6628,1091.41 12.765,1094.36 4.5143,1095.9L0,1096.74L0,1093.37C0,1091.35 0.500243,1089.99 1.25,1089.98C2.14307,1089.97 2.17694,1089.76 1.36861,1089.23C-0.0993858,1088.28 -0.093991,1083 1.375,1082.98C1.99375,1082.98 1.83803,1082.55 1.02896,1082.04C0.219889,1081.53 -0.189486,1080.86 0.119238,1080.55C0.990537,1079.68 7.03349,1081.14 6.45174,1082.08C6.16806,1082.54 5.19724,1082.63 4.29437,1082.28C2.98876,1081.78 2.81387,1082.05 3.43984,1083.58C3.87273,1084.63 4.45334,1086.29 4.73008,1087.25C5.37946,1089.51 6.15226,1089.45 9.36514,1086.93C11.9329,1084.91 12.9374,1082 11.0674,1082C10.5545,1082 9.84913,1081.1 9.5,1080C8.991,1078.4 7.98697,1078 4.43261,1078C0.206798,1078 6.62989e-16,1077.86 1.42109e-14,1075.1L2.84217e-14,1072.19L10.6918,1071.46C24.8737,1070.5 40.3673,1071.43 51.9018,1073.95C63.2597,1076.43 80.7694,1076.68 93.119,1074.55C97.7286,1073.76 105.55,1072.59 110.5,1071.95C120.204,1070.7 129.985,1068.47 131.06,1067.25C133.14,1064.9 134.327,1057.7 135.025,1043.18C135.457,1034.2 136.043,1026.62 136.327,1026.34C136.82,1025.85 140.131,1028.21 153.338,1038.47L159.176,1043L182.25,1043L205.324,1043L212.912,1038.64C227.089,1030.5 234,1027.04 234,1028.07C234,1028.95 230.081,1043.76 224.37,1064.47C223.616,1067.2 223,1070.41 223,1071.59C223,1075 220.135,1082.23 217.796,1084.72C216.62,1085.97 215.848,1087.14 216.079,1087.32C216.311,1087.5 221.45,1088.67 227.5,1089.92C233.55,1091.17 240.637,1092.64 243.25,1093.18C245.863,1093.72 248,1094.64 248,1095.22C248,1096.65 237.727,1095.54 225.844,1092.83C220.705,1091.66 213.982,1090.55 210.904,1090.37C207.826,1090.19 204.001,1089.36 202.404,1088.53C200.807,1087.69 198.739,1087.01 197.809,1087.01C196.879,1087 195.908,1086.66 195.651,1086.25C195.394,1085.84 198.768,1085.65 203.149,1085.83C212.155,1086.2 214.876,1085.07 217.568,1079.87C220.853,1073.52 216.709,1066.49 208.165,1063.93C202.961,1062.37 196.403,1064.23 193.05,1068.22C186.519,1075.98 184.235,1077.87 180.52,1078.56C177.998,1079.04 175.965,1078.85 174.591,1078.01C172.723,1076.87 172.751,1077.01 174.856,1079.3C176.153,1080.7 177.765,1081.64 178.44,1081.38C179.307,1081.05 179.531,1081.88 179.205,1084.21L178.745,1087.5L181.122,1085.4C185.802,1081.26 186.816,1081.77 184.312,1087.01C181.955,1091.93 178.699,1094 173.305,1094C169.682,1094 165.656,1089.51 166.448,1086.35L167.088,1083.8L164.294,1085.79C159.944,1088.89 157.4,1091.98 159.095,1092.1C159.868,1092.15 159.375,1092.51 158,1092.9C155.675,1093.55 155.884,1093.79 161,1096.28C168.187,1099.78 178.309,1100.74 189.609,1098.98C195.249,1098.11 199.226,1097.97 201.518,1098.58C205.947,1099.76 230.859,1119.37 228.527,1119.84C226.61,1120.22 223.096,1117.9 210.502,1107.91L201.505,1100.77L195.502,1101.48C192.201,1101.87 184.483,1102.49 178.351,1102.85C164.757,1103.64 162.926,1104.76 157.667,1115.5C153.768,1123.46 152.633,1130.71 154.472,1135.92C155.312,1138.3 156,1140.87 156,1141.63C156,1144.22 153.361,1143 151.93,1139.75C150.866,1137.33 149.86,1136.5 148,1136.5C146.625,1136.5 144.953,1136.15 144.286,1135.71C143.44,1135.17 143.516,1135.99 144.536,1138.43C146.395,1142.88 146.383,1143 144.088,1143C142.645,1143 142.014,1142.04 141.518,1139.11Z" fill-rule="evenodd" fill="#000000"/>
<path d="M76.0784,1092.46C78.4819,1091.22 78.9831,1090.4 78.6724,1088.21C78.4222,1086.45 77.7154,1085.55 76.6544,1085.64C75.7563,1085.71 75.2682,1085.37 75.5698,1084.89C76.3004,1083.7 73.8858,1083.78 72,1085C71,1085.65 70.9167,1085.97 71.75,1085.98C72.4375,1085.99 73,1086.48 73,1087.06C73,1087.64 72.4805,1087.8 71.8455,1087.4C71.1072,1086.95 70.9634,1087.13 71.4466,1087.91C71.8623,1088.59 72.8264,1088.9 73.5892,1088.6C75.1347,1088.01 75.0644,1090.09 73.5,1091.23C72.95,1091.64 70.622,1091.98 68.3267,1091.98C65.281,1092 63.3221,1091.3 61.0767,1089.41C58.2231,1087.01 57.0477,1087.08 58.7653,1089.56C61.7887,1093.91 70.4599,1095.36 76.0784,1092.46Z" fill-rule="evenodd" fill="#000000"/>
<path d="M174,1086.23C174,1079.57 170.238,1070.49 165.81,1066.47C159.315,1060.57 145.1,1058.06 138.904,1061.72C135.136,1063.94 135.097,1067.76 138.775,1074.5L141.503,1079.5L152.502,1079.75C167.556,1080.08 167.845,1080.18 168.64,1085.15C169.088,1087.95 169.884,1089.42 171.138,1089.75C172.15,1090.01 172.688,1090.7 172.334,1091.27C171.961,1091.87 172.175,1092.01 172.845,1091.6C173.48,1091.2 174,1088.79 174,1086.23Z" fill-rule="evenodd" fill="#000000"/>
<path d="M158.528,1086.45C162.638,1084.5 166,1082.65 166,1082.33C166,1080.96 157.515,1083.26 154.176,1085.53C152.174,1086.89 149.714,1088 148.709,1088C147.704,1088 147.16,1088.45 147.5,1089C148.53,1090.67 150.718,1090.16 158.528,1086.45Z" fill-rule="evenodd" fill="#000000"/>
<path d="M183.863,1067.06C184.812,1063.9 185.574,1063.06 187.771,1062.78C190.135,1062.49 189.996,1062.37 186.731,1061.92C183.108,1061.42 182.919,1061.54 181.87,1065.04C180.942,1068.14 180.422,1068.61 178.39,1068.22C175.816,1067.73 175.299,1066.55 177.155,1065.4C177.87,1064.96 178.038,1065.13 177.595,1065.85C177.185,1066.51 177.48,1067 178.29,1067C179.287,1067 179.639,1065.9 179.496,1063.25C179.377,1061.04 178.824,1059.6 178.147,1059.75C176.532,1060.1 176.722,1058.96 178.632,1056.85C180.141,1055.19 180.14,1054.86 178.609,1052.53C177.441,1050.74 176.061,1050 173.918,1050C172.248,1050 171.116,1049.62 171.402,1049.16C172.215,1047.84 155.825,1047.96 152.75,1049.3C151.238,1049.95 150,1050.78 150,1051.13C150,1051.49 148.019,1052.71 145.597,1053.85C143.175,1054.99 140.149,1057.4 138.872,1059.21L136.55,1062.5L139.852,1059.75C142.444,1057.59 144.184,1057 147.952,1057C150.591,1057 154.083,1056.73 155.711,1056.41C157.623,1056.03 159.177,1056.32 160.095,1057.24C160.878,1058.02 161.995,1058.5 162.577,1058.31C164.34,1057.72 170.26,1062.29 173.475,1066.71C175.865,1070 177.149,1070.89 179.592,1070.94C182.342,1070.99 182.814,1070.57 183.863,1067.06Z" fill-rule="evenodd" fill="#000000"/>
<path d="M225.944,1046.89C227.502,1041.61 229.259,1036.38 229.849,1035.28C231.664,1031.89 228.34,1033 217.913,1039.25C212.64,1042.41 207.465,1045.03 206.413,1045.08C204.115,1045.17 210.562,1047.81 213.363,1047.92C214.446,1047.97 217.951,1045.06 221.741,1040.96C225.325,1037.09 228.474,1034.14 228.738,1034.4C229.003,1034.67 226.447,1038.72 223.06,1043.42C217.802,1050.7 217.06,1052.24 217.986,1053.97C218.582,1055.09 219.496,1056 220.016,1056C220.548,1056 220.742,1058.08 220.461,1060.75L219.959,1065.5L221.535,1061C222.402,1058.53 224.386,1052.18 225.944,1046.89Z" fill-rule="evenodd" fill="#000000"/>
<path d="M204,1058.45C210.316,1058.19 210.823,1058 208.111,1056.92C206.797,1056.39 204.261,1056.24 202.475,1056.57C200.69,1056.91 198.952,1056.73 198.613,1056.18C198.245,1055.59 198.902,1055.38 200.249,1055.68C202.057,1056.08 202.205,1055.96 201,1055.1C199.769,1054.22 199.94,1054.03 201.95,1054.02C204.672,1054 203.759,1052.52 200.5,1051.67C199.4,1051.38 200.075,1051.26 202,1051.39C204.571,1051.57 205.823,1052.28 206.717,1054.06C207.386,1055.4 208.286,1056.46 208.717,1056.41C209.148,1056.35 211.011,1056.94 212.858,1057.71C214.705,1058.49 216.425,1058.91 216.679,1058.65C216.934,1058.4 214.522,1056.01 211.319,1053.35L205.496,1048.5L195.998,1048.77C190.774,1048.92 185.124,1049.07 183.443,1049.11L180.385,1049.17L182.943,1052.18C189.946,1060.42 189.771,1060.32 194.83,1059.44C197.398,1059 201.525,1058.55 204,1058.45Z" fill-rule="evenodd" fill="#000000"/>
<path d="M146.984,1047.52C147.852,1046.47 147.742,1045.4 146.522,1043.04C144.157,1038.47 136.598,1027.17 137.463,1029.5C138.093,1031.2 138.954,1043.16 138.99,1050.72L139,1052.93L142.421,1050.91C144.302,1049.8 146.355,1048.28 146.984,1047.52Z" fill-rule="evenodd" fill="#000000"/>
<path d="M23.6349,1115.93C16.9609,1110.68 24.4295,1097 33.97,1097C38.4729,1097 40.675,1098.49 41.9642,1102.39C43.5288,1107.13 42.438,1110.37 37.8947,1114.48C33.2047,1118.71 27.8671,1119.26 23.6349,1115.93Z" fill-rule="evenodd" fill="#000000"/>
<path d="M221,1100.28C213.878,1097.25 211.195,1096.63 204.455,1096.46C195.806,1096.25 191.248,1094.62 188.561,1090.78C187.702,1089.56 187,1087.71 187,1086.67C187,1085.09 187.437,1085.26 189.762,1087.75C194.405,1092.72 198.275,1094.18 204.804,1093.44C210.086,1092.85 211.581,1093.2 224.016,1098C231.432,1100.86 237.688,1103.38 237.917,1103.6C238.146,1103.82 236.346,1103.98 233.917,1103.95C231.168,1103.92 226.289,1102.53 221,1100.28Z" fill-rule="evenodd" fill="#000000"/>
<path d="M113.018,1100.26C110.618,1099.32 108.92,1097.21 108.009,1094.03C106.444,1088.58 109.382,1083.12 115.586,1079.96C121.071,1077.16 125.327,1077.43 129.107,1080.8C136.938,1087.8 129.908,1101.13 118.5,1100.92C116.3,1100.88 113.833,1100.58 113.018,1100.26Z" fill-rule="evenodd" fill="#000000"/>
<path d="M126.051,1092.94C128.284,1090.37 128.398,1089.61 126.965,1086.93C125.782,1084.72 122.869,1084.44 119.684,1086.22C117.587,1087.4 117.639,1087.47 121,1088.09L124.5,1088.74L121.309,1088.87C116.779,1089.06 116.276,1090.77 120.519,1091.57C124.943,1092.4 124.264,1093.37 119.388,1093.19C115.784,1093.05 113,1091.59 113,1089.83C113,1089.32 114.105,1087.8 115.455,1086.45C118.127,1083.78 117.63,1083.21 114.618,1085.49C113.417,1086.4 112.693,1088.27 112.618,1090.65C112.524,1093.63 112.976,1094.64 114.822,1095.58C117.917,1097.15 123.547,1095.83 126.051,1092.94Z" fill-rule="evenodd" fill="#000000"/>
<path d="M1014.66,974.101C1015.59,972.293 1016.44,966.467 1019.48,941.275C1021.58,923.952 1024.87,916.95 1026.4,926.56C1026.72,928.604 1027.88,934.928 1028.97,940.615C1030.05,946.302 1031.22,955.878 1031.57,961.893C1032.13,971.808 1032.04,972.772 1030.54,972.196C1029.63,971.847 1028.88,970.552 1028.88,969.318C1028.88,965.495 1026.81,960.886 1024.8,960.249C1022.06,959.378 1022.43,957.775 1025.38,957.775C1026.76,957.775 1027.89,957.213 1027.9,956.525C1027.94,953.849 1024.52,930.801 1024.15,931.179C1023.93,931.399 1023.35,935.561 1022.86,940.427C1020.26,966.291 1018.81,973.208 1015.63,974.91C1013.99,975.788 1013.86,975.677 1014.66,974.101Z" fill-rule="evenodd" fill="#000000"/>
<path d="M999.114,971.224C995.857,968.943 995.152,967.109 993.437,956.452C991.413,943.875 991.376,929.945 993.359,927.114C995.142,924.568 1000.66,923.36 1004.26,924.728C1008.15,926.207 1007.44,927.775 1002.88,927.775C996.484,927.775 994.875,930.15 994.923,939.525C994.972,949.054 998.01,964.153 1000.41,966.809C1002.44,969.045 1006.67,969.383 1009.23,967.513C1010.18,966.819 1011.62,964.231 1012.43,961.763L1013.91,957.275L1013.36,961.275C1012.52,967.322 1011.01,970.396 1008.27,971.646C1004.85,973.203 1001.73,973.059 999.114,971.224Z" fill-rule="evenodd" fill="#000000"/>
<path d="M1044.04,967.525C1043.5,964.638 1042.31,955.099 1041.4,946.328C1040.49,937.557 1039.33,929.607 1038.82,928.66C1038.31,927.713 1036.55,926.641 1034.89,926.277C1030.63,925.342 1031.16,924.135 1036.13,923.45C1038.47,923.129 1042.3,922.561 1044.63,922.189C1049.05,921.485 1050.74,923.05 1046.89,924.275C1045.79,924.623 1044.6,926.048 1044.25,927.44C1043.46,930.588 1044.35,944.048 1046.23,957.395C1047.62,967.263 1047.48,972.775 1045.84,972.775C1045.39,972.775 1044.58,970.413 1044.04,967.525Z" fill-rule="evenodd" fill="#000000"/>
<path d="M195.152,1077.11C193.197,1075.88 194.097,1073.01 197.159,1070.73C199.312,1069.12 200.683,1068.88 204.366,1069.43C206.867,1069.8 209.946,1070.95 211.207,1071.98L213.5,1073.85L209,1075.9C204.36,1078.02 197.523,1078.62 195.152,1077.11Z" fill-rule="evenodd" fill="#000000"/>
<path d="M958.783,936.891C955.466,933.365 951.489,930.711 944.489,927.351C936.077,923.314 934.397,922.078 931.836,918.04C927.748,911.594 927.837,906.88 932.134,902.226C936.904,897.059 941.183,896.664 949.266,900.643C952.766,902.366 956.27,903.775 957.053,903.775C957.837,903.775 960.232,901.979 962.376,899.784C967.958,894.067 973.344,892.207 979.819,893.76C991.909,896.66 994.054,908.062 984.647,919.425C974.886,931.215 965.318,941.764 964.381,941.769C963.83,941.773 961.311,939.577 958.783,936.891Z" fill-rule="evenodd" fill="#000000"/>
<path d="M974.473,924.657C975.072,923.629 975.806,923.031 976.104,923.329C977.126,924.351 986.005,912.92 987.006,909.294C987.824,906.333 987.669,905.092 986.159,902.507C983.989,898.791 979.826,897.544 972.603,898.445C968.496,898.957 967.439,899.584 965.103,902.894C963.607,905.013 961.596,907.009 960.634,907.329C959.671,907.648 958.884,908.319 958.884,908.818C958.884,910.55 964.348,907.644 967.072,904.463C969.802,901.276 970.833,902.133 968.813,905.908C967.997,907.432 968.116,908.481 969.313,910.307C971.233,913.239 971.283,914.518 969.546,916.256C967.961,917.841 966.397,917.059 965.52,914.243C965.002,912.58 963.933,912.17 959.635,911.99C956.348,911.851 953.968,911.209 953.273,910.272C952.663,909.449 951.399,908.775 950.464,908.775C949.53,908.775 949.027,908.353 949.346,907.837C949.665,907.321 949.129,906.434 948.155,905.867C947.181,905.3 946.834,904.807 947.384,904.77C949.328,904.642 943.349,901.846 941.057,901.811C937.899,901.763 932.884,906.94 932.884,910.248C932.884,916.645 938.319,921.744 947.279,923.752C952.584,924.941 959.425,929.198 963.035,933.557L965.355,936.358L969.369,931.443C971.577,928.739 973.874,925.686 974.473,924.657Z" fill-rule="evenodd" fill="#000000"/>
<path d="M1424.14,945.001C1415.19,942.887 1416.85,935.583 1426.75,933.519C1429.27,932.993 1430,933.176 1430,934.341C1430,935.193 1428.71,936.125 1427.01,936.497C1423.26,937.321 1422.12,938.962 1425.19,939.116C1426.9,939.202 1427.05,939.351 1425.74,939.692C1423.28,940.332 1424.6,942 1427.56,942C1429.33,942 1430,942.546 1430,944C1430,946.137 1429.39,946.241 1424.14,945.001Z" fill-rule="evenodd" fill="#000000"/>
<path d="M1392,923.62C1392,922.972 1403.05,914.85 1412.88,908.275C1418.04,904.824 1423.44,901.955 1424.88,901.9L1427.5,901.801L1425,901.071C1422.71,900.404 1422.82,900.303 1426.25,899.872C1429.8,899.426 1430,899.549 1430,902.201C1430,904.704 1429.65,905 1426.68,905C1424.13,905 1420.12,907.205 1409.43,914.483C1397.67,922.487 1392,925.461 1392,923.62Z" fill-rule="evenodd" fill="#000000"/>
<path d="M1383.12,908.136C1382,907.397 1382.1,907.114 1383.62,906.68C1384.65,906.383 1390.76,904.512 1397.18,902.521C1406.49,899.637 1410.15,898.964 1415.18,899.209C1421.28,899.507 1421.36,899.545 1417.5,900.298C1415.3,900.728 1408.33,902.632 1402,904.529C1387.99,908.732 1384.9,909.321 1383.12,908.136Z" fill-rule="evenodd" fill="#000000"/>
<path d="M1374,897.197C1374,896.756 1378.5,895.834 1383.99,895.148C1393.63,893.945 1403.93,891.223 1399.42,891.07C1398.26,891.031 1397.33,890.331 1397.33,889.5C1397.33,887.622 1397.51,887.63 1400.59,889.651L1403.11,891.303L1401.01,887.745C1399.86,885.788 1397.88,879.307 1396.61,873.343C1395.35,867.379 1393.62,861.15 1392.76,859.5C1389.6,853.403 1386.88,842.344 1387.19,836.883C1387.48,831.8 1387.66,831.482 1390.34,831.175C1392.27,830.954 1397.21,832.855 1405.84,837.128C1415.66,841.996 1419.75,843.497 1424.05,843.809L1429.6,844.211L1429.84,854.163L1430.08,864.115L1427.79,862.918C1426.53,862.259 1423.38,859.758 1420.79,857.36C1418.2,854.962 1415.37,853 1414.5,853C1411.62,853 1405.36,856.824 1402.03,860.613C1398.87,864.217 1398.78,864.558 1399.4,870.606C1400.66,882.866 1404.71,890 1410.42,890C1412.12,890 1416.65,889.333 1420.5,888.517C1428.55,886.812 1430,886.7 1430,887.779C1430,888.586 1418.13,892.066 1412,893.055L1408.5,893.62L1412.46,894.461C1415.08,895.018 1417.96,894.87 1420.96,894.025C1429.17,891.715 1430.3,891.598 1429.8,893.108C1429.54,893.874 1427.2,895.383 1424.6,896.462C1420.02,898.363 1419.61,898.371 1411.62,896.726C1404.12,895.182 1402.61,895.163 1394.94,896.513C1385.84,898.113 1374,898.501 1374,897.197Z" fill-rule="evenodd" fill="#000000"/>
<path d="M1407.18,852.395C1412.93,848.377 1422.72,847.113 1424.59,850.145C1425.35,851.369 1427,850.199 1427,848.441C1427,847.576 1426.01,847 1424.53,847C1420.65,847 1413.34,844.311 1402.34,838.836C1396.74,836.053 1391.68,834.078 1391.09,834.447C1388.5,836.044 1390.65,847.067 1395.52,857.165L1397.29,860.831L1400.39,857.9C1402.1,856.289 1405.16,853.811 1407.18,852.395Z" fill-rule="evenodd" fill="#000000"/>
<path d="M1415.19,882.042C1412.33,881.339 1409.13,878.69 1409.03,876.941C1409.01,876.634 1409.59,875.576 1410.31,874.59C1411.89,872.424 1418.64,871.568 1425,872.725C1429.18,873.486 1429.52,873.783 1429.82,876.899C1430,878.745 1429.78,880.601 1429.32,881.025C1428,882.264 1418.8,882.926 1415.19,882.042Z" fill-rule="evenodd" fill="#000000"/>
<path d="M1130.88,593.774C1129.61,591.837 1129.35,589.837 1129.76,585.262C1130.81,573.721 1126.84,564.814 1115.66,553.67C1111.88,549.895 1107.8,544.88 1106.6,542.525C1104.74,538.859 1106.03,539.9 1115.59,549.775C1128.12,562.706 1130.07,563.548 1136.49,558.806L1139.88,556.306L1171.03,556.306C1192.97,556.306 1204.99,555.883 1211.72,554.872C1216.98,554.083 1222.12,553.665 1223.14,553.943C1224.16,554.222 1226.98,557.382 1229.42,560.967C1231.85,564.551 1234.89,568.177 1236.19,569.024C1238.38,570.464 1238.93,570.353 1244.67,567.292C1248.05,565.493 1253.08,563.518 1255.85,562.903C1260.8,561.804 1260.92,561.68 1263.23,555.795C1265.87,549.051 1269.49,536.227 1269.49,533.634C1269.49,532.042 1269.41,532.039 1268.24,533.595C1266.7,535.653 1244.63,546.899 1240.23,547.864C1237.21,548.528 1237.12,548.463 1238.51,546.686C1239.33,545.652 1240.43,544.493 1240.97,544.111C1241.5,543.728 1241.64,543.123 1241.29,542.765C1240.93,542.408 1239.23,543.621 1237.51,545.461C1234.56,548.603 1234.42,548.655 1235.04,546.306C1236.35,541.387 1239.19,537.75 1244.55,534.131C1247.54,532.11 1250.78,529.748 1251.74,528.881C1253.23,527.548 1253.49,527.531 1253.49,528.766C1253.49,530.22 1248.67,535.306 1247.29,535.306C1246.89,535.306 1246.05,536.261 1245.43,537.427C1244.08,539.952 1244.99,539.531 1250.73,534.966C1253.34,532.892 1254.66,530.915 1255.11,528.402C1255.98,523.572 1257.11,521.578 1259.77,520.184C1261.97,519.028 1261.97,519.038 1260.12,521.125C1259.09,522.285 1257.86,525.388 1257.39,528.02C1256.7,531.851 1255.68,533.566 1252.26,536.61L1247.99,540.413L1253.73,537.61C1256.89,536.068 1259.48,534.442 1259.48,533.997C1259.49,533.552 1259.01,533.487 1258.42,533.852C1257.68,534.311 1257.64,533.945 1258.31,532.661C1258.84,531.641 1259.77,529.568 1260.37,528.054C1261.44,525.328 1267.18,520.996 1268.58,521.857C1269.62,522.501 1271.49,516.588 1271.49,512.657C1271.49,510.067 1271.91,509.306 1273.34,509.306C1279.04,509.306 1284.74,526.136 1286.48,548.083C1287.42,559.994 1288.51,564.306 1290.55,564.306C1293.02,564.306 1293.37,559.381 1291.4,552.625C1290.25,548.675 1289.05,540.338 1288.56,532.806C1287.76,520.655 1286.31,514.306 1284.33,514.306C1283.87,514.306 1283.48,514.869 1283.46,515.556C1283.45,516.25 1282.77,515.926 1281.94,514.828C1281.11,513.74 1280.53,511.265 1280.64,509.328C1280.75,507.391 1280.33,504.856 1279.71,503.694C1276.54,497.806 1264.04,490.334 1257.33,490.316C1253.84,490.307 1253.69,490.442 1254.13,493.247C1254.93,498.311 1250.94,504.055 1238.13,516.258C1231.46,522.61 1223.98,529.885 1221.5,532.426C1219.02,534.967 1215.99,537.565 1214.77,538.2C1212.38,539.433 1207.49,538.719 1207.49,537.139C1207.49,536.616 1207.91,536.444 1208.41,536.757C1209.28,537.292 1210.07,536.651 1213.36,532.764C1214.53,531.376 1214.42,530.945 1212.61,529.672C1210.66,528.308 1209.46,525.55 1211.31,526.695C1211.77,526.974 1213.23,527.431 1214.56,527.711C1215.9,527.992 1217.93,528.496 1219.06,528.833C1220.41,529.23 1221.64,528.825 1222.56,527.684C1223.67,526.322 1223.69,526.107 1222.64,526.737C1221.82,527.232 1219.34,526.64 1216.33,525.228C1212.24,523.312 1211.03,523.117 1209.43,524.114C1208.3,524.819 1207.49,524.911 1207.49,524.334C1207.49,522.791 1212.08,522.017 1216.92,522.743C1222.3,523.55 1222.95,522.74 1222.84,515.382C1222.77,510.564 1222.92,510.166 1224.13,511.823C1224.88,512.849 1225.49,514.476 1225.49,515.439C1225.49,519.109 1227.35,518.125 1228.03,514.093C1228.81,509.506 1232.33,503.145 1236.11,499.516C1237.42,498.256 1238.49,496.314 1238.49,495.2C1238.49,492.882 1240.27,489.155 1241.89,488.072C1244.1,486.596 1229.75,487.392 1221.01,489.229C1214.16,490.67 1211.6,491.674 1210.2,493.462C1206.41,498.31 1200.28,508.777 1198.36,513.701C1197.26,516.509 1194.62,520.606 1192.49,522.806C1190.35,525.006 1187.31,529.281 1185.72,532.306C1183.19,537.114 1182.48,537.781 1180.04,537.602C1176.5,537.341 1176.16,536.964 1176.16,533.297C1176.16,530.095 1178.33,524.615 1184.61,511.975C1186.75,507.668 1188.49,503.146 1188.49,501.925C1188.49,500.705 1189.03,499.166 1189.69,498.506C1190.63,497.573 1188.85,497.306 1181.69,497.306C1174.16,497.306 1172.23,497.623 1171.02,499.056C1170.21,500.019 1167.35,503.281 1164.65,506.306C1161.96,509.331 1158.97,513.381 1158,515.306C1154.5,522.32 1151.71,523.378 1147.15,519.427C1143.34,516.122 1143.33,514.781 1147.09,507.379C1150.48,500.719 1152.53,498.936 1154.02,501.354C1154.75,502.529 1152.7,512.208 1151.37,513.898C1150.47,515.038 1151.18,516.306 1152.72,516.306C1153.21,516.306 1153.36,515.897 1153.05,515.397C1152.74,514.896 1152.78,513.734 1153.13,512.813C1153.64,511.476 1153.95,511.407 1154.64,512.473C1155.23,513.384 1155.42,513.014 1155.25,511.306C1155.1,509.8 1155.47,508.898 1156.19,509.038C1156.85,509.165 1158.34,507.931 1159.5,506.295C1161.12,504.025 1161.25,503.464 1160.04,503.926C1158.24,504.619 1155.24,502.533 1156.08,501.168C1156.39,500.667 1156.27,500.341 1155.82,500.443C1155.37,500.546 1153.73,500.107 1152.18,499.468C1150.63,498.829 1146.78,498.306 1143.62,498.306C1139.13,498.306 1137.17,498.829 1134.62,500.713C1132.83,502.037 1130.02,503.673 1128.39,504.348C1126.76,505.023 1125.61,505.753 1125.82,505.969C1126.04,506.185 1127.52,505.844 1129.11,505.211C1130.69,504.578 1135.01,503.763 1138.69,503.4C1144.07,502.868 1145.17,502.99 1144.31,504.023C1143.73,504.729 1142.27,505.306 1141.08,505.306C1136.14,505.306 1127.16,508.536 1119.63,513.023C1115.21,515.654 1112.04,517.961 1112.58,518.15C1113.12,518.34 1114.67,517.763 1116.04,516.87C1117.4,515.976 1119.98,515.202 1121.76,515.149C1127.23,514.987 1137.77,517.431 1142.37,519.93C1144.78,521.237 1147.59,522.306 1148.61,522.306C1150.36,522.306 1150.34,522.466 1148.33,524.779C1147.15,526.138 1144.4,528.486 1142.22,529.995L1138.26,532.739L1136.47,530.526C1134.53,528.134 1134.83,525.106 1137.18,523.15C1138.29,522.229 1139.37,522.2 1141.57,523.031C1143.18,523.637 1144.49,523.78 1144.49,523.35C1144.49,522.412 1138.56,520.724 1128.99,518.939C1123.32,517.882 1121.31,517.873 1118.49,518.893C1116.57,519.587 1113.76,520.188 1112.24,520.23C1109.43,520.308 1108.26,522.306 1111.02,522.306C1113.08,522.306 1122.96,527.359 1130.69,532.364C1135.67,535.584 1137.63,536.329 1139.99,535.893C1142.82,535.375 1142.88,535.43 1141.05,536.824C1139.99,537.639 1138.54,538.306 1137.84,538.306C1137.14,538.306 1130.96,535.381 1124.11,531.806C1117.25,528.226 1110.38,525.312 1108.82,525.319C1107.27,525.326 1103.74,526.416 1100.99,527.74C1096.78,529.77 1096.39,530.177 1098.49,530.327C1100.98,530.505 1100.98,530.51 1098.7,531.156L1096.41,531.806L1099.49,535.982C1101.18,538.279 1103.82,543.229 1105.35,546.982C1108.22,553.969 1108.68,554.366 1115.68,555.773L1118.37,556.314L1113.18,567.522C1106.29,582.422 1099.67,589.121 1094,586.946C1091.55,586.008 1092.26,583.244 1096.95,575.447C1106.65,559.334 1105.84,547.097 1094.29,534.709L1091.4,531.611L1073.9,531.815C1056.87,532.014 1056.33,532.086 1053.7,534.469C1052.21,535.816 1047.39,540.219 1042.99,544.252C1034.2,552.311 1030.74,554.881 1029.85,553.994C1029.53,553.674 1034.38,548.43 1040.63,542.342C1049.71,533.498 1053.1,530.857 1057.49,529.208C1061.67,527.641 1063.41,527.404 1064.73,528.225C1067.16,529.74 1077.85,529.546 1085.02,527.857C1088.33,527.076 1093.7,524.832 1096.96,522.872C1100.21,520.911 1103.35,519.257 1103.94,519.197C1104.52,519.137 1103.11,518.715 1100.8,518.259C1098.5,517.804 1095.46,516.673 1094.04,515.746C1091.46,514.053 1089.65,509.818 1090.95,508.514C1091.34,508.129 1096.37,507.522 1102.13,507.165C1114.12,506.423 1115.59,505.622 1117.5,498.797C1119.74,490.805 1117.14,487.306 1108.97,487.306C1104.14,487.306 1094.93,490.986 1090.89,494.529C1086.14,498.701 1082.92,505.866 1082.61,512.972C1082.28,520.338 1080.93,521.863 1079.77,516.174C1079.28,513.772 1079.13,511.581 1079.44,511.306C1079.74,511.031 1080.67,509.945 1081.49,508.893C1082.92,507.077 1082.87,507.043 1080.64,508.234C1076.62,510.376 1071.79,508.702 1066.38,503.286C1060.55,497.454 1056.18,495.922 1049.58,497.398C1039.11,499.736 1035.62,508.869 1042.44,516.056C1044.28,518 1045.59,518.306 1052.07,518.306C1057.69,518.306 1060.6,517.785 1063.63,516.237C1069.24,513.375 1069.22,514.18 1063.59,518.053C1059.76,520.681 1057.26,521.506 1050.43,522.384C1045.79,522.98 1038.84,524.53 1034.99,525.828C1018.26,531.473 1006.81,533.635 1013,529.981C1015.82,528.321 1038.52,521.393 1041.3,521.345C1042.66,521.323 1043.34,520.872 1042.96,520.254C1042.6,519.675 1041.8,519.37 1041.18,519.578C1039.36,520.185 1035.58,511.943 1033.85,503.582C1032.97,499.326 1030.8,492.011 1029.02,487.325C1027.25,482.64 1025.48,477.456 1025.1,475.806C1024.71,474.156 1024.17,471.906 1023.89,470.806C1023.42,468.943 1023.52,468.959 1025.33,471.033C1026.4,472.257 1028.79,477.544 1030.64,482.781C1032.48,488.018 1034.22,492.279 1034.49,492.249C1034.77,492.22 1036.07,490.841 1037.38,489.184L1039.76,486.173L1036.77,482.99C1033.72,479.733 1027,470.207 1027.12,469.306C1027.16,469.031 1026.47,468.262 1025.59,467.596C1022.68,465.392 1031.41,468.222 1040.31,472.368C1044.89,474.499 1050.15,476.526 1052,476.874C1054.97,477.43 1064.2,476.544 1088.77,473.345L1095.54,472.463L1105.71,462.793C1117.83,451.276 1117.24,450.883 1118.49,471.306C1118.95,478.731 1119.86,486.577 1120.51,488.742C1121.16,490.906 1121.45,494.506 1121.15,496.742C1120.64,500.528 1120.67,500.608 1121.68,497.901L1122.76,494.996L1144.78,495.636C1157.12,495.994 1169.7,495.862 1173.39,495.335C1177.02,494.817 1184.41,493.917 1189.81,493.334C1195.22,492.752 1202.19,491.362 1205.31,490.246C1213.92,487.174 1228.92,484.306 1236.35,484.31C1245.95,484.316 1261.17,487.014 1267.21,489.78C1272.93,492.394 1281.36,499.736 1284.52,504.849C1288.83,511.816 1290.66,519.381 1291.43,533.306C1292.2,547.47 1294.27,554.944 1298.81,560.031C1301.69,563.259 1308.72,565.673 1313.41,565.045C1318.29,564.391 1321.41,562.107 1325.4,556.286C1330.64,548.63 1329.29,540.151 1321.48,531.677C1316.93,526.741 1316.36,523.217 1319.72,520.863C1323.76,518.031 1331.54,519.651 1337.02,524.467C1344.34,530.888 1345.62,547.033 1339.8,559.465C1335.65,568.34 1331.54,572.645 1323.28,576.775C1317.31,579.766 1315.2,580.306 1309.51,580.306C1305.82,580.306 1301.26,579.795 1299.39,579.17C1289.31,575.8 1282.62,562.249 1282.53,545.014C1282.47,534.342 1276.8,510.306 1274.34,510.306C1273.71,510.306 1273.47,511.422 1273.77,512.984C1274.53,516.962 1272.81,534.395 1270.9,542.085C1269.98,545.782 1267.48,553.359 1265.34,558.924C1263.2,564.488 1260.79,572.5 1259.98,576.727C1258.08,586.647 1257.23,588.094 1251.91,590.448C1247.35,592.465 1237.49,594.127 1237.49,592.879C1237.49,592.491 1238.55,590.74 1239.85,588.99C1243.1,584.589 1243.48,583.075 1242.01,580.333L1240.74,577.961L1240,580.383C1238.46,585.447 1235.61,587.306 1229.38,587.306C1226.21,587.306 1223.36,586.903 1223.06,586.41C1222.75,585.916 1224.27,583.376 1226.43,580.765C1228.58,578.154 1230.62,574.94 1230.95,573.624C1231.67,570.76 1229.62,566.129 1225.34,560.933C1222.24,557.172 1222.16,557.143 1216.6,557.754C1213.52,558.093 1195.92,558.618 1177.5,558.922C1156.63,559.266 1143.53,559.866 1142.75,560.513C1141.87,561.236 1141.49,565.109 1141.49,573.28C1141.49,585.655 1140.52,590.372 1137.18,594.056C1134.55,596.97 1132.93,596.898 1130.88,593.774Z" fill-rule="evenodd" fill="#000000"/>
<path d="M1137.47,586.457C1138.91,581.256 1138.76,569.047 1137.22,566.943C1135.86,565.088 1133.01,565.523 1132.17,567.712C1131.18,570.296 1133.52,578.805 1135.67,580.434L1137.82,582.061L1135.67,583.213C1133.43,584.412 1131.85,588.451 1132.93,590.206C1134.09,592.082 1136.45,590.135 1137.47,586.457Z" fill-rule="evenodd" fill="#000000"/>
<path d="M1249.98,587.445C1255.33,584.611 1255.53,584.225 1257.51,573.306C1258.16,569.731 1258.85,566.019 1259.04,565.056C1259.22,564.094 1259.07,563.316 1258.69,563.329C1257.41,563.37 1252.98,567.262 1254.19,567.284C1254.84,567.296 1255.65,566.856 1255.99,566.306C1257.5,563.874 1258.39,565.606 1257.01,568.277C1255.06,572.052 1253.34,572.936 1246.26,573.819C1243.1,574.212 1240.77,574.94 1241.08,575.437C1241.38,575.933 1242.16,576.035 1242.81,575.662C1243.46,575.29 1243.67,575.343 1243.28,575.78C1242.88,576.217 1243.45,577.7 1244.53,579.075C1247.31,582.613 1246.98,585.049 1243.24,588.548C1240.19,591.41 1240.14,591.546 1242.49,590.837C1243.87,590.423 1247.24,588.896 1249.98,587.445Z" fill-rule="evenodd" fill="#000000"/>
<path d="M1230.64,584.867C1233.56,584.377 1234.63,583.55 1235.96,580.741C1237.77,576.921 1237.7,574.207 1235.77,573.563C1235.07,573.332 1233.83,574.926 1232.9,577.241C1231.79,580.03 1229.96,582.141 1227.13,583.888C1224.86,585.296 1223.89,586.231 1224.99,585.965C1226.09,585.699 1228.64,585.205 1230.64,584.867Z" fill-rule="evenodd" fill="#000000"/>
<path d="M1310.76,576.709C1311.09,576.38 1311.11,575.468 1310.81,574.683C1310.36,573.52 1309.96,573.489 1308.63,574.514C1307.32,575.519 1307.35,575.356 1308.75,573.701C1310.43,571.726 1310.43,571.564 1308.75,570.162C1303.69,565.934 1296.9,565.107 1295.56,568.556C1294.51,571.257 1296.13,574.246 1299.6,576.042C1302.07,577.314 1309.7,577.77 1310.76,576.709Z" fill-rule="evenodd" fill="#000000"/>
<path d="M1332.39,565.686C1338.46,558.791 1340.59,553.62 1340.66,545.629C1340.74,536.907 1339.13,531.049 1335.57,527.068C1332.96,524.145 1332.63,524.031 1331.12,525.542C1328.74,527.922 1325.87,528.576 1323.46,527.286C1321.52,526.247 1321.43,526.324 1322.45,528.231C1323.07,529.372 1323.98,530.306 1324.49,530.306C1326.37,530.306 1330.41,539.016 1331.41,545.23C1332.42,551.527 1333.49,553.227 1336.49,553.324C1338.61,553.393 1333.79,557.306 1331.59,557.306C1330.67,557.306 1328,559.251 1325.67,561.627C1322.29,565.071 1321.27,566.967 1320.64,570.976L1319.84,576.005L1324.11,573.122C1326.46,571.537 1330.19,568.19 1332.39,565.686Z" fill-rule="evenodd" fill="#000000"/>
<path d="M1110.72,565.279L1114.11,558.752L1110.88,559.13C1108.49,559.41 1107.4,560.188 1106.66,562.157C1104.6,567.658 1103.81,570.847 1104.23,572.059C1105,574.3 1107.24,571.963 1110.72,565.279Z" fill-rule="evenodd" fill="#000000"/>
<path d="M1183.34,529.327C1183.91,527.688 1186.43,524.154 1188.94,521.473C1191.44,518.792 1193.49,515.66 1193.49,514.512C1193.49,513.364 1193.92,512.158 1194.45,511.833C1194.98,511.508 1195.15,510.582 1194.84,509.774C1194.53,508.967 1194.79,508.306 1195.41,508.306C1196.09,508.306 1196.3,507.376 1195.93,505.916C1195.6,504.601 1195.82,503.224 1196.41,502.856C1198.34,501.667 1197.65,497.492 1195.42,496.782C1194.28,496.42 1193.08,496.39 1192.75,496.715C1192.43,497.04 1193.02,497.335 1194.08,497.37C1195.82,497.427 1195.8,497.511 1193.87,498.292C1192.24,498.949 1191.86,499.764 1192.24,501.762C1192.84,504.894 1190.76,510.777 1184.88,522.624C1180.11,532.225 1180.08,532.306 1181.4,532.306C1181.89,532.306 1182.77,530.966 1183.34,529.327Z" fill-rule="evenodd" fill="#000000"/>
<path d="M1109.99,515.391C1112.66,514.787 1112.17,514.514 1105.49,512.914C1101.37,511.925 1096.53,510.756 1094.74,510.316C1089.7,509.075 1090.85,511.096 1096.74,513.843C1102.07,516.32 1104.59,516.615 1109.99,515.391Z" fill-rule="evenodd" fill="#000000"/>
<path d="M1081.18,499.306C1082.39,496.831 1083.4,495.232 1083.44,495.753C1083.47,496.273 1084.96,495.282 1086.74,493.552C1090.45,489.959 1102.21,484.306 1105.97,484.306C1108.93,484.306 1108.86,482.946 1105.74,479.723C1103.28,477.176 1102.97,474.918 1104.49,470.622C1105.48,467.828 1105.47,467.832 1102.56,471.184C1100.3,473.793 1099.85,474.986 1100.57,476.434C1101.08,477.464 1101.92,479.16 1102.44,480.204C1103.16,481.655 1102.99,482.218 1101.69,482.596C1100.76,482.867 1098.27,483.836 1096.15,484.749C1094.04,485.662 1092.61,485.936 1092.96,485.358C1094.01,483.669 1090.33,484.148 1088.32,485.961C1087.32,486.872 1086.49,487.139 1086.49,486.555C1086.49,485.971 1085.59,485.729 1084.49,486.017C1083.39,486.304 1082.49,487.376 1082.49,488.398C1082.49,489.94 1082.09,490.103 1080.12,489.356C1078.82,488.86 1074.72,488.472 1071,488.494C1067.29,488.515 1063.97,488.106 1063.62,487.584C1063.28,487.062 1062.09,486.125 1060.99,485.501C1059.02,484.379 1059.02,484.367 1061.09,484.337C1062.24,484.32 1065.27,484.937 1067.84,485.709C1072.06,486.981 1072.5,486.958 1072.57,485.459C1072.62,484.42 1072.84,484.271 1073.16,485.056C1073.69,486.388 1078.49,486.829 1078.49,485.547C1078.49,483.801 1083.39,481.818 1088.99,481.295L1094.99,480.735L1090.73,479.358C1087.14,478.2 1083.71,478.186 1069.12,479.269C1049.4,480.733 1049.31,480.718 1036.4,473.754C1031.86,471.308 1028,469.306 1027.83,469.306C1027.65,469.306 1030.77,472.442 1034.75,476.275C1041.66,482.92 1044.63,484.514 1045.99,482.306C1046.33,481.756 1048.97,481.306 1051.85,481.306L1057.09,481.306L1057.04,485.212L1056.99,489.117L1054.29,485.962C1052.8,484.226 1051.56,483.354 1051.54,484.023C1051.51,484.692 1053.06,486.801 1054.96,488.709L1058.43,492.179L1054.71,490.638C1049.8,488.604 1048.29,487.283 1048.94,485.594C1049.25,484.792 1049.03,484.475 1048.43,484.846C1047.86,485.2 1047.55,485.981 1047.75,486.581C1047.95,487.181 1046.74,488.927 1045.06,490.46C1043.37,491.993 1042.58,493.261 1043.3,493.277C1044.02,493.293 1044.39,493.662 1044.12,494.097C1043.86,494.531 1046.28,494.45 1049.5,493.916C1057.08,492.663 1061.77,494.156 1068.63,500.018C1075.36,505.76 1078.1,505.605 1081.18,499.306Z" fill-rule="evenodd" fill="#000000"/>
<path d="M1114.91,477.056C1115.16,475.819 1115.6,470.538 1115.88,465.321L1116.4,455.835L1112.32,462.821C1106.08,473.526 1105.75,475.702 1109.99,478.111C1113.03,479.832 1114.41,479.536 1114.91,477.056Z" fill-rule="evenodd" fill="#000000"/>
<path d="M1022.16,539.634C1021.18,538.655 1025.5,535.784 1036.97,529.798C1046.19,524.984 1048.37,524.218 1051.41,524.728C1057.62,525.771 1058.41,525.532 1064.27,520.883C1070.84,515.666 1072.55,516.616 1066.94,522.367C1064.3,525.061 1061.23,526.864 1056.86,528.276C1049.46,530.666 1048.31,530.763 1050.94,528.775C1052.81,527.361 1052.78,527.306 1050.31,527.306C1048.9,527.306 1043.59,529.6 1038.51,532.404C1027.69,538.372 1022.98,540.457 1022.16,539.634Z" fill-rule="evenodd" fill="#000000"/>
<path d="M1075.8,521.716C1075.14,521.42 1074.1,519.631 1073.47,517.742C1072.85,515.852 1071.92,514.306 1071.42,514.306C1070.91,514.306 1070.49,513.899 1070.49,513.4C1070.49,511.116 1074.52,513.86 1075.49,516.806C1077.65,523.347 1083.58,522.046 1085.77,514.552L1087.15,509.806L1087.93,514.165C1088.52,517.497 1088.35,518.876 1087.2,520.026C1085.68,521.555 1077.97,522.696 1075.8,521.716Z" fill-rule="evenodd" fill="#000000"/>
<path d="M1050.83,509.612C1045.64,508.6 1047.97,502.961 1054.08,501.738C1056.52,501.251 1057.78,501.665 1060.08,503.717L1062.99,506.313L1060.63,508.309C1058.39,510.204 1055.7,510.562 1050.83,509.612Z" fill-rule="evenodd" fill="#000000"/>
<path d="M1093.49,502.348C1092.22,501.518 1092.41,500.954 1094.7,498.653C1096.86,496.487 1098.37,495.924 1102.17,495.872C1105.87,495.821 1107.01,496.183 1107.28,497.493C1107.47,498.432 1106.59,499.831 1105.31,500.647C1102.25,502.589 1095.38,503.578 1093.49,502.348Z" fill-rule="evenodd" fill="#000000"/>
<path d="M199,500.177C199,498.083 224.641,477.092 227.285,477.021C229.464,476.963 225.052,481.62 217.239,487.627C212.433,491.322 207.15,495.553 205.5,497.028C202.35,499.845 199,501.468 199,500.177Z" fill-rule="evenodd" fill="#000000"/>
<path d="M317.089,490.94C302.681,483.651 295,478.776 295,476.921C295,476.335 296.186,476.788 297.635,477.927C299.084,479.067 300.687,480 301.196,480C302.498,480 325.817,491.707 329.743,494.332C332.96,496.482 333.903,498 332.022,498C331.484,498 324.764,494.823 317.089,490.94Z" fill-rule="evenodd" fill="#000000"/>
<path d="M266.578,496.067C266.07,495.278 265.17,491.693 264.578,488.1C263.632,482.369 263.094,481.294 260.195,479.346L256.889,477.125L260.695,476.068C262.788,475.487 265.951,475.009 267.725,475.006C270.844,475 270.914,475.091 269.853,477.75C269.25,479.262 268.473,484.325 268.128,489C267.703,494.747 267.201,497.036 266.578,496.067Z" fill-rule="evenodd" fill="#000000"/>
<path d="M186.531,484.051C185.957,483.121 188.196,482.369 210.411,476.032C222.811,472.494 225.341,471.411 223,470.642C222.175,470.371 217.225,469.948 212,469.703C202.863,469.273 187.031,465.502 187.009,463.75C186.995,462.637 192.457,462.842 195.685,464.076C197.233,464.669 203.431,465.803 209.459,466.598C220.633,468.072 225.358,469.905 224.402,472.395C223.56,474.59 213.448,478.662 200.635,481.965C187.485,485.356 187.35,485.376 186.531,484.051Z" fill-rule="evenodd" fill="#000000"/>
<path d="M315,478.841C307.575,477.23 300.537,475.711 299.36,475.465C294.352,474.417 296.099,469.384 302.322,466.929C304.07,466.24 309.918,463.68 315.319,461.24C324.692,457.006 328.568,456.28 324.427,459.536C321.369,461.939 312.074,466.463 305,468.989C296.725,471.945 295.563,472.996 300.55,473.016C308.222,473.046 332.205,478.905 333.547,481.076C334.472,482.572 329.361,481.956 315,478.841Z" fill-rule="evenodd" fill="#000000"/>
<path d="M218.416,460.273C216.181,458.038 212.502,449.685 210.679,442.704C209.265,437.289 209.276,437.207 211.371,437.461C212.542,437.602 218.637,439.357 224.915,441.359C231.193,443.362 237.183,445 238.224,445C239.369,445 239.844,445.444 239.425,446.122C237.817,448.723 220.187,444.393 213.711,439.807L210.5,437.533L212.349,440.382C213.366,441.95 215.279,446.409 216.599,450.292C217.92,454.175 219.686,458.398 220.523,459.676C222.301,462.39 220.923,462.78 218.416,460.273Z" fill-rule="evenodd" fill="#000000"/>
<path d="M299.165,450.23C296.898,440.989 296.395,434.492 297.874,433.578C298.53,433.173 302.355,449.695 303.383,457.375C303.447,457.856 303.012,458.432 302.415,458.653C301.776,458.891 300.439,455.427 299.165,450.23Z" fill-rule="evenodd" fill="#000000"/>
<path d="M1340.24,451.25C1356.7,438.473 1365.55,432.174 1365.84,433.041C1366.39,434.677 1364.27,436.688 1352.57,445.61C1345.75,450.807 1340.64,454 1339.13,454C1336.83,454 1336.89,453.857 1340.24,451.25Z" fill-rule="evenodd" fill="#000000"/>
<path d="M1408.04,451.078C1407.48,450.021 1406.38,446.458 1405.61,443.16C1404.55,438.616 1403.4,436.439 1400.86,434.165C1399.01,432.515 1397.8,430.864 1398.17,430.495C1398.54,430.126 1401.64,429.571 1405.06,429.261L1411.28,428.697L1410.39,432.598C1409.9,434.744 1409.6,440.212 1409.72,444.75C1409.84,449.288 1409.75,453 1409.51,453C1409.27,453 1408.61,452.135 1408.04,451.078Z" fill-rule="evenodd" fill="#000000"/>
<path d="M273,451.556C273,447.099 285.778,435.08 294.304,431.518C299.416,429.381 298.927,431.006 293.25,435.016C290.637,436.862 285.012,441.486 280.75,445.292C276.488,449.098 273,451.917 273,451.556Z" fill-rule="evenodd" fill="#000000"/>
<path d="M1324.57,438.108C1325.4,437.219 1360.39,427 1362.6,427C1362.89,427 1362.84,426.55 1362.5,426C1362.16,425.45 1358.51,425 1354.4,425C1346.19,425 1335.3,423.044 1326.9,420.064C1321.69,418.212 1321.62,418.144 1325,418.086C1326.92,418.053 1332.78,418.91 1338,419.989C1343.22,421.069 1350.2,422.238 1353.5,422.588C1360.21,423.3 1364.22,425.264 1363.39,427.427C1362.29,430.294 1341.52,436.988 1328.75,438.589C1324.84,439.08 1323.77,438.957 1324.57,438.108Z" fill-rule="evenodd" fill="#000000"/>
<path d="M1355.27,414.75C1353.52,412.484 1350.08,405.589 1347.98,400.096C1345.19,392.808 1346.09,392.053 1354.76,394.455C1358.47,395.483 1364.4,397.063 1367.93,397.965C1374.75,399.703 1377.25,402 1372.31,402C1368.24,402 1355.1,398.227 1351.19,395.938C1346.72,393.319 1346.51,393.469 1349.29,397.25C1353.15,402.502 1359.11,416 1357.57,416C1356.84,416 1355.81,415.438 1355.27,414.75Z" fill-rule="evenodd" fill="#000000"/>
<path d="M1412,404.395C1411.99,402.54 1427.26,387 1429.09,387C1431.38,387 1429.64,391.035 1426.25,393.595C1424.19,395.152 1420.14,398.646 1417.25,401.359C1413.16,405.2 1412,405.871 1412,404.395Z" fill-rule="evenodd" fill="#000000"/>
<path d="M383.5,361.158C385.15,360.15 387.038,358.672 387.696,357.875C388.354,357.078 390.75,347.242 393.021,336.018C396.747,317.601 399.299,308.965 400.623,310.29C400.885,310.551 401.976,317.681 403.049,326.133C405.133,342.547 405.61,358.505 404.047,359.471C403.128,360.039 401.473,355.186 400.817,350C400.598,348.271 399.789,347.399 398.195,347.173C395.445,346.783 392.915,348.614 393.629,350.476C394.384,352.443 390.496,359.445 387.593,361.347C386.205,362.256 384.042,362.998 382.785,362.996C380.664,362.993 380.715,362.861 383.5,361.158Z" fill-rule="evenodd" fill="#000000"/>
<path d="M401.473,342.5C401.458,341.95 401.043,336.325 400.551,330C399.778,320.06 399.544,319.043 398.828,322.5C397.083,330.919 395.395,343.061 395.899,343.565C396.793,344.459 401.502,343.56 401.473,342.5Z" fill-rule="evenodd" fill="#000000"/>
<path d="M416.671,357C416.371,355.625 415.858,347.525 415.531,339C414.886,322.161 414.191,316 412.937,316C412.493,316 410.863,315.486 409.315,314.857C406.565,313.74 406.638,313.684 412.5,312.401C415.8,311.678 420.3,311.075 422.5,311.06L426.5,311.033L422.5,313.301L418.5,315.568L418.841,335.034C419.039,346.316 418.769,355.551 418.199,357L417.215,359.5L416.671,357Z" fill-rule="evenodd" fill="#000000"/>
<path d="M372.123,355.43C369.503,352.098 368.65,346.308 368.567,331.277C368.502,319.369 368.568,318.986 371.132,316.417C374.052,313.493 381.455,312.036 384.562,313.775C386.035,314.599 385.323,314.999 380.655,315.968C372.116,317.74 371.61,318.933 372.218,335.833C372.744,350.473 373.622,353.616 377.455,354.578C381.874,355.687 385.355,353.024 386.725,347.489L387.959,342.5L387.381,347.5C386.659,353.738 385.559,355.837 382.374,357.048C377.894,358.751 374.289,358.182 372.123,355.43Z" fill-rule="evenodd" fill="#000000"/>
<path d="M148.5,340.343C138.691,339.473 129.095,337.955 124.307,336.516C112.274,332.901 98.2927,314.393 92.5028,294.413C87.8429,278.332 88.4409,259.719 94.1524,243.072C98.9392,229.12 113.974,211.908 127.621,204.758C136.668,200.017 146.294,198 159.865,198C173.563,198 175.181,196.642 171.267,188.433C169.534,184.8 169.535,184.797 172.226,182.482C175.653,179.535 177.978,180.127 182.46,185.088C188.247,191.493 188.381,197.414 182.908,204.969C178.952,210.429 173.713,212.68 161.922,213.983C138.493,216.574 128.873,219.712 120.054,227.642C110.733,236.021 106.1,248.376 105.295,267C104.851,277.261 105.143,281.56 106.924,291C110.097,307.814 112.719,314.275 117.693,317.534C119.097,318.455 119.908,318.66 119.495,317.992C119.082,317.323 119.304,316.43 119.99,316.006C120.777,315.52 121.546,311.047 122.079,303.868C122.983,291.682 123.123,290.906 126.217,281C128.89,272.442 139.463,258.206 148.928,250.419C162.906,238.92 168.867,235.496 205,218.207C221.944,210.1 228.534,206.253 228.478,204.5C228.461,203.95 225.723,200.8 222.394,197.5C212.838,188.028 207.516,174.611 206.693,157.921L206.32,150.342L212.41,151.738C215.76,152.506 222.249,154.952 226.831,157.173C237.081,162.142 241.049,162.726 250.838,160.706C255.052,159.836 262.097,158.419 266.494,157.558L274.488,155.991L285.494,144.572C291.547,138.291 297.962,132.432 299.75,131.551C303.454,129.725 303.597,129.944 301.437,134.121C299.174,138.498 296.862,152.883 297.841,156.5C298.597,159.293 298.773,159.013 300.384,152.454C301.336,148.579 302.258,143.273 302.433,140.662C302.607,138.052 302.985,135.682 303.272,135.394C304.249,134.417 305.159,144.754 304.49,149.22C304.074,151.993 304.392,156.081 305.334,160.083C307.654,169.929 307.935,173.382 306.974,180.207C306.171,185.911 305.686,186.848 301.794,190.22C297.216,194.186 294.911,194.635 285.64,193.364C278.514,192.387 280.121,191.506 289.13,191.449C296.951,191.4 297.36,191.281 300.066,188.252C307.027,180.461 306.363,162.907 299.05,161.419C292.229,160.03 290.554,159.283 288.704,156.805C286.909,154.401 286.841,153.788 288.036,150.814C288.768,148.991 291.155,144.8 293.339,141.5C296.794,136.282 296.949,135.826 294.532,138C293.003,139.375 289.513,143.425 286.776,147C281.353,154.083 281.339,154.173 283.603,168.75C284.599,175.16 282.531,173.952 281.035,167.25C280.33,164.088 279.312,160.375 278.773,159L277.794,156.5L276.894,158.845C276.294,160.408 276.497,163.131 277.504,167.016C278.674,171.532 278.801,174.348 278.067,179.528C277.547,183.204 276.869,186.465 276.56,186.773C276.252,187.081 275.98,183.996 275.956,179.917C275.903,170.817 273.929,160.81 272.065,160.188C271.061,159.854 270.885,160.245 271.422,161.614C271.83,162.651 272.563,168.9 273.051,175.5C274.224,191.354 274.22,192.62 273.002,191.402C272.452,190.852 271.593,185.475 271.091,179.452C270.287,169.783 267.747,159.92 266.407,161.26C266.145,161.522 266.385,163.708 266.941,166.118C267.496,168.528 267.962,174.467 267.976,179.316C267.989,184.164 268.494,189.054 269.097,190.181C269.963,191.799 269.91,192.139 268.847,191.791C268.106,191.549 267.037,189.585 266.472,187.426C265.906,185.267 264.375,181.475 263.069,179C261.037,175.147 258.05,166.141 258.012,163.75C258.005,163.338 258.603,163 259.34,163C260.219,163 261.118,165.492 261.955,170.25C263.413,178.532 264.828,181.993 265.125,178C265.448,173.653 265.003,170.625 263.396,166.25C261.981,162.399 261.518,162 258.464,162C253.631,162 250,163.909 250,166.45C250,174.012 258.482,193.48 262.421,194.961C263.564,195.391 265.942,195.528 267.704,195.265C270.5,194.847 270.992,195.118 271.563,197.393C272.087,199.484 272.816,200 275.243,200L278.27,200L275.654,202.057C274.216,203.189 270.845,204.461 268.162,204.885C263.551,205.614 256.714,209.958 260.061,210.032C262.82,210.093 257.967,212.83 253.874,213.521C250.794,214.042 247.658,216.19 239.539,223.344C223.773,237.233 220.603,238.165 233.5,225.12C243.692,214.811 244.972,213.85 250.92,212.043C254.451,210.97 257.783,210.366 258.325,210.701C258.866,211.035 259.03,210.858 258.69,210.308C258.35,209.757 259.381,208.051 260.983,206.517L263.894,203.727L261.199,200.114C259.194,197.426 259.015,196.884 260.502,198C261.601,198.825 262.95,200 263.5,200.61C265.03,202.309 267.29,202.806 269.5,201.932C271.428,201.169 271.422,201.138 269.333,201.07C268.142,201.032 267.017,200.663 266.833,200.25C266.65,199.838 264.88,198.291 262.9,196.813C256.905,192.339 250.299,181.59 248.009,172.581C245.856,164.113 244.98,162.201 245.033,166.083C245.127,173.011 246.992,182.338 248.662,184.229L250.5,186.31L247.838,184.597C245.715,183.232 244.849,181.427 243.565,175.692C242.679,171.737 241.627,168.018 241.227,167.428C240.381,166.18 217.693,155.507 214,154.619C212.625,154.289 212.065,154.278 212.756,154.595C213.447,154.912 213.761,155.577 213.454,156.074C213.147,156.571 213.512,156.741 214.264,156.452C215.016,156.163 219.141,158.218 223.43,161.018C230.968,165.938 231.207,166.215 230.592,169.291C230.242,171.041 229.365,173.063 228.644,173.785C227.562,174.867 227.402,174.607 227.729,172.298C227.96,170.677 227.446,168.659 226.508,167.5C224.936,165.558 224.923,165.568 226.03,167.843C227.717,171.311 226.362,175.049 221.937,179.134C218.7,182.123 218,182.434 218,180.884C218,179.848 218.57,179 219.266,179C221.174,179 219.863,163.967 217.663,160.608C216.723,159.174 215.729,158 215.454,158C215.179,158 215.651,159.064 216.504,160.365C217.687,162.171 217.814,163.358 217.042,165.389C216.351,167.208 216.375,169.649 217.119,173.12C218.526,179.682 216.803,181.997 215.121,175.805C213.812,170.983 213.693,168.165 214.579,162.895C215.099,159.801 214.806,158.993 212.509,157.185C211.037,156.028 210.105,154.639 210.438,154.101C210.771,153.562 210.122,153.19 208.997,153.275C207.565,153.383 207.147,153.89 207.605,154.965C207.965,155.809 208.841,159.698 209.553,163.607C210.265,167.516 212.335,174.48 214.154,179.083C216.81,185.803 218.733,188.799 223.92,194.298C227.472,198.063 231.728,201.842 233.377,202.695C237.143,204.642 243.301,204.55 250.568,202.437C257.315,200.476 258.908,201.344 256.632,205.744C254.743,209.398 249.818,211.569 244.5,211.094C234.21,210.173 230.488,210.72 221.5,214.475C216.55,216.543 210.7,219.227 208.5,220.438C206.3,221.65 200.9,224.113 196.5,225.912C160.339,240.695 135.743,261.793 128.349,284.37C126.102,291.23 125.618,294.764 125.248,307C125.007,314.975 124.444,321.886 123.997,322.358C122.642,323.788 116.553,321.167 113.245,317.731C103.151,307.246 98.6103,266.533 105.345,246.893C109.929,233.526 115.554,225.615 124.057,220.58C129.587,217.305 139.709,213.362 141.373,213.834C141.853,213.97 141.965,213.352 141.623,212.459C141.28,211.567 141,209.097 141,206.972L141,203.108L135.75,204.638C122.916,208.378 107.338,222.606 100.293,237.025C94.8846,248.092 92.5642,258.658 92.6113,272C92.6601,285.827 94.8752,295.082 101.214,307.94C107.602,320.899 116.541,330.67 124.5,333.393C130.335,335.39 153.601,338.365 155.277,337.329C156.251,336.727 200.878,335.119 201.836,335.651C202.02,335.754 201.12,336.413 199.836,337.116C198.306,337.953 190.599,338.64 177.5,339.105C166.5,339.496 156.375,340.014 155,340.257C153.625,340.499 150.7,340.538 148.5,340.343Z" fill-rule="evenodd" fill="#000000"/>
<path d="M149.883,208.198C151.261,204.419 151.272,203.783 149.975,202.964C146.203,200.578 143.4,203.988 144.465,209.668C145.353,214.396 147.874,213.712 149.883,208.198Z" fill-rule="evenodd" fill="#000000"/>
<path d="M177.234,205.979L180.5,202.958L177.75,203.588C176.126,203.959 173.353,203.558 170.979,202.608C166.571,200.844 163.504,200.479 166.172,202.036C167.091,202.573 168.14,204.359 168.501,206.006C169.382,210.016 172.882,210.005 177.234,205.979Z" fill-rule="evenodd" fill="#000000"/>
<path d="M183.594,196.481C184.808,191.647 179.013,183.014 175.468,184.374C173.354,185.185 174.029,187.229 176.828,188.493C178.255,189.137 178.802,190.015 178.385,190.993C176.592,195.199 176.786,196.986 179.135,197.926C182.625,199.324 182.903,199.234 183.594,196.481Z" fill-rule="evenodd" fill="#000000"/>
<path d="M214.75,334.018C212.013,331.865 210.097,324.121 209.9,314.418C209.808,309.85 208.484,303.549 207.975,305.25C207.49,306.868 207.242,308.071 207.046,309.75C206.918,310.852 206.655,311.035 206.336,310.245C205.996,309.401 204.49,310.137 201.735,312.495C195.615,317.733 195.31,316.741 200.955,309.958C207.275,302.364 207.991,299.832 204.973,295.75C203.628,293.93 202.737,291.374 202.806,289.533C202.886,287.42 201.678,284.569 199.084,280.747C194.734,274.338 192.7,274 196.751,280.36C198.201,282.637 199.667,286.612 200.008,289.194C200.73,294.666 199.556,294.813 198.671,289.361C198.342,287.333 196.682,283.944 194.983,281.829C193.236,279.656 192.193,277.443 192.584,276.742C192.964,276.059 192.244,276.482 190.984,277.682C187.949,280.571 188.169,283.811 192.025,293C197.533,306.125 198.195,309.054 196.307,311.935C194.747,314.316 194.638,314.339 193.822,312.463C193.17,310.962 193.095,311.147 193.504,313.25C193.798,314.762 193.6,316 193.064,316C191.739,316 190.647,322.311 191.504,325.013C191.909,326.287 193.98,327.989 196.467,329.088C200.733,330.976 205.495,335.122 201.813,333.743C200.884,333.395 198.321,332.625 196.116,332.031C190.193,330.436 188,327.063 188,319.547C188,311.421 185.817,304.494 181.592,299.211C178.748,295.656 178.298,294.46 178.962,292.211C180.027,288.603 187.537,276.262 190.956,272.5C192.456,270.85 194.723,267.925 195.994,266C198.961,261.506 213.807,247.079 219.285,243.367C221.603,241.796 225.733,238.777 228.461,236.659C231.19,234.541 237.265,230.861 241.961,228.483C248.97,224.933 250.909,223.425 252.785,220.07C255.933,214.439 261.154,211.224 268.5,210.394C271.8,210.021 276.551,208.921 279.059,207.948C281.566,206.976 285.616,205.899 288.059,205.556C292.213,204.972 293.211,205.351 303.5,211.424C318.03,220 318.304,220.209 314.083,219.532C312.203,219.23 306.606,216.724 301.645,213.963C296.684,211.203 291.697,208.715 290.562,208.436C289.428,208.156 285.35,209.03 281.5,210.377C277.65,211.724 272.7,213.15 270.5,213.545C268.3,213.94 265.734,214.658 264.798,215.141C263.862,215.624 259.885,222.408 255.961,230.217C252.037,238.026 246.202,248.259 242.995,252.957C239.788,257.656 235.912,264.2 234.383,267.5C231.872,272.917 231.602,274.57 231.607,284.5C231.612,295.566 235.053,316.231 238.533,326.095C240.797,332.51 240.583,333 235.514,333C231.414,333 230.808,332.667 228.47,329.134C226.876,326.725 225.216,321.803 224.068,316.08C223.054,311.026 221.894,306.579 221.49,306.196C220.219,304.992 221.59,326.375 222.952,329C223.666,330.375 225.061,332.4 226.052,333.5C227.83,335.473 227.783,335.503 222.573,335.759C218.533,335.957 216.694,335.547 214.75,334.018Z" fill-rule="evenodd" fill="#000000"/>
<path d="M236.779,329.256C235.931,328.29 234.926,326.481 234.546,325.235C234.167,323.99 233.469,323.21 232.997,323.502C232.525,323.794 231.856,323.575 231.51,323.016C231.165,322.457 231.359,322 231.941,322C233.478,322 233.234,317.764 231.079,307C230.033,301.775 228.852,294.35 228.456,290.5C228.06,286.65 227.385,282.562 226.956,281.416C226.527,280.27 223.056,277.479 219.243,275.213C212.706,271.33 206.461,265.03 207.177,263.042C207.354,262.547 209.3,263.442 211.5,265.029C213.7,266.617 216.4,268.446 217.5,269.094C219.241,270.119 219.205,269.95 217.222,267.791C215.922,266.376 215.198,264.647 215.536,263.766C215.89,262.844 215.073,261.163 213.511,259.602C212.042,258.133 211.206,256.475 211.607,255.826C212.062,255.091 215.54,257.987 221.161,263.782C226.022,268.793 230,272.224 230,271.406C230,270.587 231.795,266.224 233.988,261.709C236.181,257.194 237.145,254.575 236.128,255.89C234.287,258.271 234.27,258.273 231.139,256.423C229.411,255.402 227.765,253.836 227.482,252.942C227.198,252.048 225.886,250.302 224.567,249.063C222.342,246.972 221.902,246.906 218.477,248.145C216.359,248.911 213.68,251.016 212.193,253.085C210.768,255.069 208.082,257.687 206.225,258.904C204.368,260.122 202.237,262.583 201.488,264.374C199.256,269.715 200.914,273.988 208.512,282.477C212.215,286.615 215.64,290 216.123,290C217.548,290 217.154,291.792 214.406,297.799C211.825,303.442 211.818,303.534 212.924,315.953C213.967,327.668 214.981,331.352 216.692,329.641C217.091,329.242 217.729,322.297 218.11,314.208C218.492,306.119 219.046,298.6 219.342,297.5C219.637,296.4 220.14,294.262 220.459,292.75C221.46,287.999 222.688,289.741 223.279,296.75C223.974,305 228.411,323.322 230.402,326.164C231.92,328.33 237.198,331.99 237.911,331.37C238.136,331.173 237.627,330.222 236.779,329.256Z" fill-rule="evenodd" fill="#000000"/>
<path d="M238.13,245.225L241.944,248.29L243.91,245.895C246.752,242.431 247.253,239.389 245.528,236.055C243.462,232.059 242.608,231.715 238.794,233.341C234.967,234.974 232.393,237.231 229.25,241.712C226.465,245.682 226.437,246.313 229.086,245.473C230.911,244.893 231.04,245.056 230.121,246.774C229.543,247.854 229.383,249.049 229.765,249.431C230.146,249.813 231.327,248.333 232.388,246.143L234.316,242.16L238.13,245.225Z" fill-rule="evenodd" fill="#000000"/>
<path d="M339.52,328.045C337.539,323.65 334.013,320.915 323.193,315.375C313.344,310.332 310,306.446 310,300.042C310,295.93 310.483,294.671 313.039,292.115C318.038,287.116 322.146,286.985 330.78,291.548L338.083,295.408L341.93,291.2C348.21,284.329 355.647,282.315 362.583,285.606C366.14,287.294 370,292.471 370,295.552C370,299.604 365.397,306.323 354.977,317.479C348.94,323.944 344,329.856 344,330.617C344,333.449 341.243,331.866 339.52,328.045Z" fill-rule="evenodd" fill="#000000"/>
<path d="M351.415,314.648C354.577,312.576 364,298.575 364,295.948C364,294.961 362.835,292.769 361.411,291.077C359.328,288.601 358.053,288 354.889,288C351.444,288 350.284,288.683 345.543,293.5C339.506,299.635 337.563,300.121 331.685,296.971C325.816,293.826 319.124,291.826 316.866,292.542C314.455,293.308 311.658,299.347 312.495,301.983C312.815,302.993 313.729,304.36 314.526,305.021C315.767,306.051 315.827,305.803 314.948,303.28C313.696,299.69 315.017,295.596 317.93,294.038C319.531,293.18 319.846,293.238 319.434,294.311C319.051,295.308 320.031,295.713 323.123,295.834C325.438,295.924 328.82,296.876 330.637,297.949C332.455,299.021 335.459,300.183 337.314,300.531C340.362,301.103 341.299,300.628 347.085,295.582C353.446,290.034 357.06,288.283 355.167,291.666C354.634,292.618 354.59,294.571 355.064,296.223C355.52,297.813 355.54,300.07 355.108,301.238C354.411,303.122 354.244,302.975 353.631,299.931C352.653,295.073 351.176,297.913 351.597,303.843C351.905,308.192 351.63,307.806 350.432,302.209C349.511,297.908 347.937,301.043 348.58,305.895C349.071,309.593 348.715,311.791 346.969,315.851C344.21,322.263 343.562,322.076 345.589,315.453C347.11,310.482 346.786,302.604 345.014,301.509C343.588,300.628 342.942,304.311 343.922,307.729C344.425,309.48 344.675,311.72 344.478,312.707C343.275,318.741 342.886,320 342.224,320C341.818,320 341.637,318.087 341.821,315.75L342.157,311.5L338.47,311.242C333.768,310.913 333,310.401 333,307.59C333,301.732 329.1,296.584 326.078,298.452C325.561,298.771 324.856,298.575 324.51,298.016C324.165,297.457 322.334,297 320.441,297C317.568,297 317,297.361 317,299.188C317,302.911 321.089,307.597 328.996,312.936C333.168,315.752 337.8,319.187 339.291,320.569C340.781,321.95 342,322.613 342,322.04C342,321.468 342.436,321 342.969,321C343.501,321 343.66,321.788 343.322,322.75C342.983,323.712 344.056,322.682 345.706,320.461C347.357,318.24 349.925,315.624 351.415,314.648Z" fill-rule="evenodd" fill="#000000"/>
<path d="M131.212,894.132C116.526,891.418 109.305,887.036 100.594,875.551C89.6342,861.104 85.2009,847.602 85.0062,828.08C84.9145,818.89 85.3519,813.859 86.6583,809.08C91.672,790.738 104.464,772.837 118.438,764.609C129.119,758.319 140.16,755.08 150.92,755.08C162.518,755.08 166.393,753.863 166.35,750.233C166.332,748.774 165.657,746.707 164.85,745.639C159.878,739.066 169.245,734.701 175.488,740.682C181.339,746.288 181.63,753.677 176.289,761.049C171.745,767.322 164.904,769.9 146.882,772.129C132.427,773.917 122.445,778.196 114.585,785.973C105.437,795.026 99.4378,811.023 99.3989,826.466C99.3797,834.071 103.481,855.599 106.473,863.594C108.463,868.913 115.351,876.979 113.933,872.33C112.947,869.097 114.802,869.547 115.993,872.83C116.785,875.014 117.029,873.465 117.182,865.306C117.502,848.228 120.814,835.56 127.826,824.599C133.624,815.537 138.936,809.67 147.297,803.096C156.96,795.498 163.417,791.572 181.382,782.368C202.871,771.358 217.523,763.28 220.7,760.693L223.518,758.396L217.582,753.254C210.675,747.271 205.622,738.531 202.45,727.084C200.373,719.59 199.637,706.658 201.231,705.673C202.402,704.95 217.577,709.295 224.882,712.445C232.164,715.586 235.051,715.67 245.658,713.048C268.301,707.451 269.444,707.008 273.797,702.144C281.451,693.592 293.214,682.08 294.299,682.08C296.606,682.08 295.127,684.704 291.347,687.318C289.171,688.824 285.116,693.099 282.338,696.818C277.441,703.374 277.307,703.733 277.934,708.58C279.695,722.207 277.864,729.295 275.813,716.789C274.615,709.486 273.006,706.538 271.981,709.768C271.651,710.808 272.11,714.34 273.002,717.619C275.747,727.718 275.826,729.035 273.415,724.58C272.224,722.38 270.345,718.213 269.239,715.318C268.134,712.424 266.812,710.315 266.302,710.63C264.979,711.447 266.121,715.486 270.053,723.898C273.064,730.341 273.368,731.715 272.601,735.398L271.73,739.58L270.929,735.08C270.489,732.605 269.047,728.507 267.725,725.973C266.403,723.439 265.045,719.035 264.708,716.188C263.995,710.171 262.044,709.785 261.562,715.565C261.333,718.306 262.112,721.127 264.302,725.488C265.985,728.839 267.986,734.505 268.749,738.08C269.513,741.655 270.465,745.48 270.866,746.58C271.266,747.68 270.702,747.198 269.61,745.508C268.519,743.818 266.857,739.789 265.917,736.555C264.977,733.321 263.413,729.665 262.443,728.431C261.472,727.197 260.099,723.463 259.393,720.134C258.583,716.317 257.604,714.08 256.745,714.08C255.995,714.08 255.382,714.508 255.382,715.032C255.382,717.491 258.371,727.009 260.31,730.724C263.528,736.89 264.138,742.054 261.846,743.73C259.014,745.801 257.897,745.385 256.083,741.58C255.165,739.655 254.813,738.08 255.3,738.08C255.787,738.08 256.656,739.43 257.232,741.08C258.315,744.187 260.084,745.018 260.93,742.816C261.196,742.12 259.896,737.733 258.039,733.066C256.183,728.399 254.052,722.443 253.304,719.83C252.056,715.467 250.382,713.428 250.382,716.27C250.382,719.13 252.714,729.866 253.987,732.864C255.696,736.89 255.698,736.745 253.944,737.418C252.377,738.02 250.561,733.223 248.422,722.83C247.647,719.067 246.745,717.08 245.81,717.08C243.146,717.08 245.021,727.255 249.418,736.658C251.121,740.3 252.259,743.536 251.948,743.847C251.636,744.159 251.382,743.904 251.382,743.282C251.382,742.659 250.029,740.61 248.377,738.728C245.025,734.91 243.013,729.925 241.962,722.83C241.576,720.218 240.771,718.08 240.175,718.08C238.186,718.08 240.016,732.094 242.431,735.361L244.564,738.246L242.023,736.581C239.547,734.959 238.614,732.935 236.433,724.456C235.387,720.39 235.219,720.265 224.627,715.71C218.717,713.168 212.307,710.826 210.382,710.504C207.082,709.952 207.168,710.062 211.882,712.42C214.632,713.797 216.474,714.958 215.977,715.001C215.479,715.045 215.854,715.945 216.811,717.003C217.768,718.06 218.802,720.796 219.109,723.082C219.481,725.862 219.945,726.798 220.508,725.909C222.234,723.188 221.444,719.167 218.85,717.468C215.431,715.228 216.444,714.544 220.259,716.517C227.472,720.247 226.374,725.882 217.102,732.707C210.987,737.209 207.511,737.7 211.452,733.506C212.673,732.206 214.026,731.36 214.458,731.627C214.89,731.895 215.569,731.586 215.967,730.942C216.387,730.263 216.259,730.038 215.664,730.406C214.583,731.074 213.412,725.934 213.393,720.441C213.386,718.702 212.456,716.249 211.305,714.941C210.163,713.643 209.58,713.248 210.009,714.064C211.38,716.673 211.059,733.08 209.637,733.08C208.842,733.08 208.382,731.634 208.382,729.139C208.382,726.972 207.965,724.941 207.455,724.626C206.887,724.275 206.887,722.806 207.455,720.823C208.815,716.081 208.596,714.097 206.632,713.372C205.669,713.017 204.551,712.243 204.147,711.653C203.743,711.063 203.42,712.83 203.429,715.58C203.438,718.404 204.084,721.425 204.913,722.521C205.721,723.589 206.382,725.672 206.382,727.149C206.382,729.685 207.739,733.733 210.885,740.58C212.231,743.511 218.543,750.043 225.208,755.404C229.485,758.845 234.026,758.877 242.915,755.532C246.639,754.13 250.292,753.216 251.034,753.5C253.23,754.343 252.578,757.519 249.632,760.33C245.64,764.138 241.908,765.239 235.468,764.511C232.159,764.136 228.04,764.365 225.432,765.067C217.947,767.082 168.712,791.931 157.966,799.117C146.656,806.68 134.801,818.441 129.561,827.298C122.962,838.452 121.054,845.936 120.693,862.08C120.514,870.055 120.16,877.143 119.906,877.83C118.376,881.971 109.061,875.768 105.149,868.004C103.646,865.021 101.199,857.405 99.7112,851.08C97.4989,841.676 97.0061,837.212 97.0068,826.58C97.0075,815.166 97.3339,812.595 99.6839,805.502C104.865,789.862 112.987,780.479 127.043,773.892C134.998,770.164 135.363,769.85 134.747,767.279C133.901,763.748 133.459,763.337 132.382,765.08C131.891,765.874 131.177,766.209 130.793,765.826C130.41,765.442 130.72,764.378 131.481,763.46C132.728,761.958 132.617,761.866 130.374,762.538C108.655,769.04 90.0583,795.116 87.9099,822.08C85.849,847.946 99.7376,878.151 117.935,887.38C126.264,891.604 145.458,893.04 166.77,891.035C172.881,890.459 182.382,889.672 187.882,889.285C198.809,888.515 200.232,887.261 192.223,885.457C189.479,884.839 186.765,883.864 186.191,883.29C185.617,882.715 184.788,878.686 184.349,874.334C183.402,864.941 181.916,861.063 177.027,855.236C175.022,852.846 173.382,850.199 173.382,849.352C173.382,846.949 179.974,834.609 184.805,827.969C197.05,811.142 220.985,789.852 236.419,782.062C241.632,779.43 248.382,773.24 248.382,771.091C248.382,770.586 250.418,768.617 252.907,766.717C256.147,764.243 258.917,763.069 262.657,762.584C267.163,762.001 272.849,759.968 283.382,755.176L285.882,754.039L283.351,754.523C279.509,755.259 276.747,754.177 275.503,751.449C273.651,747.383 274.209,746.849 277.632,749.413C282.051,752.725 284.428,753.251 287.382,751.572L289.882,750.151L286.5,750.116C284.639,750.096 281.602,749.144 279.75,747.999C275.559,745.409 275.472,744.867 279.47,746.261C282.468,747.306 290.078,746.921 293.632,745.544C296.793,744.319 295.858,749.525 292.632,751.111C289.955,752.427 289.942,752.473 292.146,752.843C295.39,753.388 293.859,755.072 290.073,755.124L286.882,755.168L290.882,756.609C293.082,757.402 294.994,758.057 295.132,758.065C295.269,758.074 295.382,758.755 295.382,759.58C295.382,761.513 293.414,761.477 288.356,759.453C284.355,757.852 284.183,757.875 277.586,760.86C273.898,762.529 268.353,764.606 265.262,765.477C262.172,766.348 259.181,767.627 258.615,768.32C258.05,769.013 254.331,776.105 250.349,784.08C246.368,792.055 241.837,800.201 240.28,802.182C236.241,807.319 229.883,819.654 227.994,826.015C227.107,829.001 226.382,834.164 226.382,837.49C226.382,843.731 231.944,869.148 235.483,879.08C236.561,882.105 237.542,885.03 237.662,885.58C238.061,887.396 228.618,886.605 226.447,884.64C225.328,883.627 223.001,878.221 221.2,872.45C219.421,866.747 217.608,862.08 217.173,862.08C214.949,862.08 218.471,880.107 221.627,884.875L224.254,888.845L220.386,889.464C215.579,890.232 211.985,888.932 209.831,885.644C208.226,883.194 205.095,866.937 204.952,860.312C204.89,857.446 204.728,857.254 203.632,858.753C202.944,859.693 202.382,861.032 202.382,861.728C202.382,862.425 199.281,865.499 195.492,868.561C185.795,876.395 185.308,879.924 193.483,883.12C195.862,884.05 198.268,885.539 198.829,886.427C200.744,889.464 197.326,891.149 186.267,892.619C173.482,894.32 137.568,895.306 131.212,894.132Z" fill-rule="evenodd" fill="#000000"/>
<path d="M214.445,868.08C214.582,858.691 215.86,843.558 216.235,846.889C216.315,847.609 216.832,847.92 217.382,847.58C217.961,847.222 218.382,848.194 218.382,849.894C218.382,851.506 219.766,857.27 221.459,862.703C223.152,868.135 224.769,873.757 225.053,875.196L225.569,877.811L228.053,875.509L230.537,873.207L227.531,861.394C225.878,854.896 224.248,847.33 223.909,844.58C222.797,835.546 222.26,832.868 221.68,833.449C221.365,833.764 219.871,833.141 218.359,832.065C216.848,830.988 213.581,829.237 211.099,828.174C208.031,826.858 205.594,824.797 203.484,821.73C201.778,819.249 200.382,816.823 200.382,816.337C200.382,815.852 201.732,814.161 203.382,812.58L206.382,809.706L209.455,812.643C211.146,814.259 214.529,817.493 216.973,819.83C221.562,824.22 221.514,824.79 216.697,823.083L213.882,822.085L217.132,824.905C218.919,826.457 220.382,828.282 220.382,828.962C220.382,829.642 220.793,829.944 221.296,829.633C221.799,829.322 222.439,829.633 222.717,830.324C222.996,831.015 223.259,830.581 223.303,829.359C223.346,828.137 224.552,824.537 225.982,821.359C229.66,813.188 230.689,809.58 228.925,811.044C227.986,811.823 227.357,811.85 226.912,811.129C226.555,810.552 225.079,810.08 223.631,810.08C221.102,810.08 221.075,810.023 222.94,808.612C224.431,807.485 224.531,807.137 223.372,807.112C221.582,807.074 219.062,803.406 219.897,802.055C221.118,800.08 212.33,801.946 209.629,804.235C201.216,811.364 184.887,830.995 182.76,836.537C182.444,837.361 183.756,841.307 185.676,845.307C193.216,861.019 193.623,862.122 193.011,865.182C192.247,869.001 193.34,868.34 198.427,861.903C203.697,855.237 203.631,852.549 198.085,847.912C192.843,843.53 186.63,832.636 188.665,831.394C189.399,830.946 190.551,829.23 191.225,827.58C191.899,825.93 193.338,823.455 194.422,822.08L196.394,819.58L194.984,823.08C193.673,826.338 193.024,830.514 193.276,834.087C193.431,836.298 201.99,846.391 204.495,847.318C206.48,848.052 206.432,847.826 203.857,844.347C202.324,842.275 200.065,839.455 198.838,838.08C196.297,835.234 194.75,831.08 196.231,831.08C196.772,831.08 197.365,831.436 197.548,831.87C197.732,832.304 201.144,835.28 205.132,838.483C209.609,842.079 212.382,845.043 212.382,846.233C212.382,847.293 211.415,850.055 210.233,852.37C208.157,856.439 208.126,857 209.314,869.08C210.814,884.328 211.178,885.577 212.956,881.58C213.752,879.791 214.353,874.341 214.445,868.08Z" fill-rule="evenodd" fill="#000000"/>
<path d="M224.749,798.866C224.449,798.381 224.47,797.292 224.795,796.445C225.286,795.165 225.904,795.342 228.46,797.493C232.68,801.044 236.533,800.877 239.793,797.003C242.661,793.595 243.911,789.903 243.001,787.531C242.659,786.639 242.826,786.237 243.393,786.587C243.937,786.923 244.382,786.695 244.382,786.081C244.382,785.466 245.706,783.302 247.326,781.272C248.945,779.241 251.184,775.33 252.3,772.58C253.416,769.83 253.779,768.431 253.106,769.47C245.358,781.427 243.794,783.376 240.994,784.561C239.282,785.286 236.02,786.644 233.745,787.58C229.706,789.242 218.004,799.901 221.796,798.465C222.984,798.015 223.474,798.121 223.09,798.744C222.749,799.296 223.105,799.747 223.882,799.747C224.658,799.747 225.048,799.35 224.749,798.866Z" fill-rule="evenodd" fill="#000000"/>
<path d="M141.775,768.499C142.108,767.629 142.382,765.405 142.382,763.558C142.382,760.095 143.821,758.102 144.717,760.324C145.023,761.082 145.255,760.886 145.303,759.83C145.392,757.845 144.124,757.613 141.339,759.103C138.529,760.607 137.161,763.799 137.894,767.139C138.59,770.305 140.786,771.075 141.775,768.499Z" fill-rule="evenodd" fill="#000000"/>
<path d="M153.485,764.58C155.494,760.037 156.795,759.039 157.719,761.33C158.021,762.077 158.255,761.876 158.303,760.83C158.346,759.868 159.051,759.08 159.87,759.08C160.688,759.08 161.292,759.868 161.211,760.83C160.816,765.541 161.291,766.32 164.132,765.615C165.644,765.24 167.032,764.516 167.215,764.006C167.398,763.497 168.111,763.08 168.798,763.08C169.486,763.08 170.048,762.482 170.048,761.751C170.048,760.904 169.216,760.581 167.753,760.86C166.44,761.111 164.749,760.591 163.803,759.645C162.547,758.388 160.676,758.062 156.015,758.286L149.882,758.58L149.323,762.08C148.812,765.285 149.707,769.08 150.973,769.08C151.26,769.08 152.39,767.055 153.485,764.58Z" fill-rule="evenodd" fill="#000000"/>
<path d="M176.797,751.56C177.145,750.174 176.959,748.159 176.383,747.083C175.243,744.952 171.535,742.594 170.676,743.453C169.762,744.366 171.411,751.08 172.549,751.08C173.244,751.08 173.185,751.613 172.382,752.58C171.331,753.846 171.529,754.08 173.651,754.08C175.504,754.08 176.331,753.418 176.797,751.56Z" fill-rule="evenodd" fill="#000000"/>
<path d="M856.25,274.505C853.068,272.216 853.443,269.326 857.729,263.103C862.094,256.765 862.427,252.717 859.114,246.224C856.136,240.387 851.23,237.489 835.789,232.446C828.48,230.06 823.192,228.083 824.037,228.053C824.9,228.023 825.642,227.013 825.729,225.75C825.872,223.679 825.78,223.639 824.582,225.25C823.071,227.281 815.837,227.65 811.315,225.928C809.767,225.338 801.75,222.911 793.5,220.535C778.587,216.24 761.739,209.99 752.848,205.456C746.166,202.048 730.056,189.54 726.296,184.84C720.856,178.04 713.929,164.098 711.792,155.651C709.466,146.452 709.719,140.971 713.075,127.805C715.683,117.576 718.517,112.519 724.815,106.856C741.344,91.9954 762.178,91.1568 796.891,103.955C801.506,105.656 810.506,108.431 816.891,110.121C828.761,113.263 832.397,114.905 827.95,115.116C826.391,115.19 826.108,115.393 827.173,115.674C828.092,115.918 829.307,117.441 829.871,119.058C831.763,124.487 833.508,122.582 833.131,115.5C833.043,113.85 833.454,110.025 834.045,107C834.636,103.975 835.499,95.425 835.963,88C836.427,80.575 837.117,73.7296 837.496,72.7881C839.438,67.9628 845.776,70.1798 856.314,79.3702C868.708,90.1795 868.198,89.9938 885.5,89.9844C903.299,89.9747 907.922,88.9523 918.11,82.7722C927.741,76.9302 933.545,74 935.485,74C939.387,74 940.027,83.826 936.892,95.59C935.733,99.9405 934.425,108.025 933.987,113.556C933.191,123.588 931.601,129.256 928.796,132.061C927.486,133.371 927.79,133.549 931.407,133.586C936.012,133.633 961.1,136.766 961.703,137.369C963.142,138.808 950.901,138.903 939.685,137.539C914.802,134.514 901.498,132.733 900.25,132.26C897.361,131.165 899.322,130.24 903.25,130.845C905.587,131.205 911.534,131.5 916.465,131.5L925.429,131.5L927.673,127.506C930.218,122.976 931.546,114.723 930.568,109.511C929.796,105.396 926.255,101.81 920.111,98.9223C914.235,96.1603 911.831,96.966 907.155,103.264C902.699,109.265 899,112.844 899,111.155C899,110.52 899.337,110.001 899.75,110.002C900.694,110.005 900.108,94.7669 899.125,93.7497C898.726,93.3371 895.156,92.9501 891.192,92.8898C880.446,92.7262 879.057,94.1343 876.437,107.849C875.733,111.538 874.812,111.118 873.237,106.39C871.581,101.416 867.133,95.0179 864.497,93.8168C862.466,92.8911 860.465,93.3213 852.284,96.4437C846.903,98.4973 841.647,100.925 840.604,101.839C838.808,103.414 838.764,103.395 839.762,101.489C841.574,98.0269 844.239,96.2889 852.731,93.0288C857.259,91.2908 861.178,89.5215 861.44,89.097C862.505,87.3731 846.198,74 843.03,74C840.356,74 839.786,76.3136 839.459,88.5C839.296,94.55 838.676,100.767 838.081,102.315C835.663,108.611 837.484,121.265 841.148,123.628C841.892,124.108 848.45,124.735 855.723,125.023C863.981,125.35 869.395,125.995 870.141,126.741C871.067,127.667 868.042,127.887 856.667,127.718C848.599,127.598 841.999,127.576 841.999,127.668C842,127.761 843.585,128.816 845.522,130.014C848.831,132.059 849.536,132.124 857.181,131.095C873.439,128.907 875.947,130.552 861,133.599C850.997,135.638 846.422,135.068 841.839,131.21C838.807,128.659 837.852,128.463 825.559,127.87C818.377,127.524 812.275,127.13 812,126.995C810.862,126.436 820.998,125.138 827.5,125.011C833.303,124.897 834.073,124.699 832,123.854C830.625,123.294 824.773,122.988 818.995,123.175L808.49,123.515L792.504,131.387C774.478,140.263 771.374,141.489 761.5,143.627C750.698,145.966 728.893,144.079 719.186,139.965C717.641,139.311 717.08,139.32 717.495,139.992C717.838,140.547 717.694,141 717.176,141C716.657,141 715.914,139.988 715.524,138.75C714.891,136.743 714.703,136.915 713.783,140.353C711.17,150.12 719.609,172.931 730.056,184.339C733.883,188.518 735.016,189.213 737.135,188.681C738.522,188.333 740.166,186.932 740.787,185.568C741.797,183.352 741.434,182.445 737.383,177.056C731.471,169.191 731.744,166.564 738,171.125C743.733,175.305 752.458,178.483 762,179.867C772.572,181.4 792.311,183.805 800,184.496C803.575,184.817 808.057,185.355 809.959,185.691C813.297,186.28 813.333,186.333 810.988,187.2C808.067,188.281 798.663,187.591 774,184.487C755.378,182.143 748.342,180.461 742.124,176.869C740.267,175.796 738.615,175.051 738.454,175.213C738.292,175.375 740.834,177.909 744.103,180.845C750.757,186.82 772.169,198.357 779.763,200.059C782.318,200.632 787.13,202.178 790.455,203.494C793.78,204.811 801.9,207.253 808.5,208.921C815.1,210.589 824.67,213.764 829.766,215.977C834.862,218.19 839.591,220 840.274,220C844.367,220 862.724,232.607 868.979,239.714C875.844,247.513 877.825,259.636 873.578,267.85C870.496,273.808 860.579,277.617 856.25,274.505Z" fill-rule="evenodd" fill="#000000"/>
<path d="M869.622,263.361C871.251,259.463 871.45,253 869.941,253C869.359,253 869.19,253.498 869.566,254.107C870.032,254.861 869.533,254.987 868,254.5C866.563,254.044 865.978,254.155 866.381,254.807C866.728,255.369 866.672,255.98 866.256,256.165C865.84,256.349 864.736,258.075 863.803,260C862.87,261.925 861.138,264.962 859.955,266.75C856.271,272.315 858.383,270.315 863.387,263.5C868.097,257.086 870.053,255.164 868.035,258.934C867.466,259.998 867,261.776 867,262.885C867,263.993 866.438,265.26 865.75,265.7C865.062,266.14 863.6,267.562 862.5,268.86L860.5,271.221L864.372,268.939C866.631,267.609 868.819,265.284 869.622,263.361Z" fill-rule="evenodd" fill="#000000"/>
<path d="M869.012,245.019C865.886,240.147 861.676,236 859.857,236C859.37,236 859.384,236.775 859.887,237.75C860.384,238.713 861.421,241.75 862.191,244.5C863.523,249.26 863.78,249.526 867.545,250.032C869.72,250.325 871.67,250.455 871.879,250.32C872.087,250.186 870.797,247.8 869.012,245.019Z" fill-rule="evenodd" fill="#000000"/>
<path d="M850.653,231.463C851.98,228.003 841.867,222.064 839.875,225.133C838.035,227.969 839.396,230.412 843.5,231.645C848.939,233.278 849.966,233.252 850.653,231.463Z" fill-rule="evenodd" fill="#000000"/>
<path d="M821.384,220.606C822.613,215.711 822.004,215.296 807.894,211.4C806.749,211.084 805.816,212.192 804.644,215.262C802.976,219.63 802.55,221.784 803.552,220.781C803.855,220.478 807.091,221.273 810.741,222.549C818.067,225.109 820.359,224.69 821.384,220.606Z" fill-rule="evenodd" fill="#000000"/>
<path d="M789,211.287C789,206.963 785.998,204 781.617,204C778.953,204 778.105,204.479 777.63,206.25C776.408,210.811 776.919,211.806 781.25,213.295C787.657,215.499 789,215.151 789,211.287Z" fill-rule="evenodd" fill="#000000"/>
<path d="M764.155,202.462C763.775,196.353 762.225,194.595 756.148,193.38C753.577,192.865 752.479,193.182 750.883,194.896C747.691,198.322 748.919,200.186 757.012,204.195C761.131,206.235 764.5,207.926 764.5,207.953C764.5,207.98 764.345,205.51 764.155,202.462Z" fill-rule="evenodd" fill="#000000"/>
<path d="M756,139.5C756.714,138.64 756.813,138 756.232,138C755.675,138 755.035,136.425 754.81,134.5C754.585,132.575 754.77,131 755.22,131C755.67,131 755.754,129.869 755.407,128.487C755.028,126.977 755.32,125.304 756.138,124.295C757.291,122.873 757.288,122.744 756.116,123.45C755.024,124.108 754.827,123.631 755.185,121.195C755.434,119.496 755.332,118.295 754.958,118.526C754.584,118.757 754.621,117.072 755.04,114.781C755.571,111.876 755.317,109.116 754.201,105.658C753.32,102.932 752.429,101.214 752.219,101.842C752.01,102.469 752.361,104.563 752.998,106.495C753.672,108.536 753.847,111.366 753.417,113.253C753.01,115.039 752.763,117.958 752.869,119.74C753.108,123.77 750.678,128.65 748.011,129.497C746.367,130.018 746,131.004 746,134.901C746,137.522 746.3,139.967 746.667,140.333C747.941,141.607 754.756,140.999 756,139.5Z" fill-rule="evenodd" fill="#000000"/>
<path d="M767.134,137.309C768.414,136.206 768.589,135.112 767.945,132.256C767.493,130.251 767.347,128.248 767.62,127.805C767.894,127.362 767.684,127 767.153,127C766.622,127 766.441,126.03 766.751,124.844C767.141,123.351 766.954,122.911 766.141,123.413C765.496,123.812 765.262,124.615 765.623,125.199C766,125.808 765.688,126.063 764.889,125.796C763.895,125.465 763.453,123.263 763.333,118.05C763.108,108.216 761.4,106.748 760.455,115.575C759.746,122.196 759.8,122.433 762.614,124.984C765.556,127.65 766.602,131.465 765.546,135.673C765.225,136.953 764.322,138 763.54,138C762.758,138 761.866,138.408 761.558,138.907C760.734,140.24 765.228,138.953 767.134,137.309Z" fill-rule="evenodd" fill="#000000"/>
<path d="M738.328,133.139C738.665,129.916 738.514,125.791 737.993,123.974C737.471,122.157 737.251,119.506 737.503,118.085C737.755,116.663 737.078,117.975 735.999,121C733.598,127.727 734.173,139 736.917,139C737.356,139 737.991,136.363 738.328,133.139Z" fill-rule="evenodd" fill="#000000"/>
<path d="M719.852,131.75C720.876,129.412 722.228,124.8 722.856,121.5C723.483,118.2 724.974,114.15 726.168,112.5L728.339,109.5L726.137,111.434C722.259,114.841 720.062,119.498 718.512,127.598C716.774,136.685 716.857,136 717.495,136C717.767,136 718.828,134.088 719.852,131.75Z" fill-rule="evenodd" fill="#000000"/>
<path d="M772.471,126.654C776.285,118.592 775.709,113.478 770.91,112.773C769.309,112.539 768,112.457 768,112.591C768,112.726 768.278,113.56 768.617,114.444C769.1,115.702 769.539,115.797 770.641,114.883C772.645,113.22 773.224,114.281 772.028,117.426C771.463,118.913 771,121.647 771,123.5C771,125.353 770.561,128.024 770.025,129.435C768.312,133.939 769.853,132.187 772.471,126.654Z" fill-rule="evenodd" fill="#000000"/>
<path d="M749,125.5C749.523,124.126 749.691,121.705 749.374,120.122C749.047,118.484 749.273,116.949 749.899,116.562C751.162,115.782 751.369,107.129 750.17,105.24C749.103,103.559 745.97,117.046 745.987,123.25C746.001,128.397 747.479,129.501 749,125.5Z" fill-rule="evenodd" fill="#000000"/>
<path d="M800.275,117.023C800.114,113.311 800.397,111.965 801.275,112.258C801.949,112.482 802.725,113.941 803,115.5C803.275,117.059 804.11,118.538 804.855,118.786C805.906,119.136 806.048,118.48 805.488,115.868C804.538,111.442 804.223,111 802.024,111C801.003,111 800.017,110.609 799.833,110.132C799.65,109.655 798.501,108.954 797.279,108.574C795.132,107.907 795.107,107.977 796.523,110.692C798.317,114.131 798.453,122.097 796.75,123.988C795.9,124.933 796.299,124.868 798,123.786C800.2,122.386 800.473,121.574 800.275,117.023Z" fill-rule="evenodd" fill="#000000"/>
<path d="M933.291,98.25C935.865,88.7299 936.229,86.0156 935.546,81.4597C935.055,78.1855 934.527,77.2441 933.421,77.6687C932.21,78.1333 932.175,78.5236 933.224,79.8668C934.359,81.3191 934.307,81.3491 932.762,80.1374C931.236,78.9415 929.829,79.4551 921.262,84.3356C915.893,87.3941 910.712,90.1929 909.75,90.5552C907.041,91.575 907.683,93 910.851,93C914.95,93 919.837,94.8634 925,98.3957C927.475,100.089 929.821,101.373 930.214,101.249C930.607,101.125 930.671,101.694 930.357,102.512C930.043,103.33 930.225,104 930.761,104C931.298,104 932.436,101.412 933.291,98.25Z" fill-rule="evenodd" fill="#000000"/>
<path d="M281.5,201.841C279.046,200.354 277.544,198.769 277.365,197.476C277.291,196.939 276.949,195.375 276.605,194C276.109,192.017 276.326,192.164 277.654,194.714C279.483,198.224 284.267,201 288.487,201C289.964,201 294.048,200.234 297.563,199.297C303.195,197.796 305.239,197.737 314.773,198.797C320.724,199.459 327.371,200.014 329.546,200.03C332.812,200.056 333.183,200.245 331.682,201.118C330.556,201.773 323.52,202.088 313.182,201.945C304.007,201.819 293.575,202.016 290,202.384C285.586,202.838 282.858,202.664 281.5,201.841Z" fill-rule="evenodd" fill="#000000"/>
<path d="M283.755,198.189C278.643,195.884 279.046,195.151 284.78,196.326C290.69,197.536 295.996,196.62 299.121,193.849C304.57,189.019 308.636,188.045 323.45,188.022C341.975,187.993 340.551,189.946 321.342,190.914C311.242,191.422 306.622,192.076 304.25,193.331C300.399,195.37 299.96,196.346 303.5,195C304.875,194.477 306,194.394 306,194.816C306,195.479 295.439,198.496 289.5,199.529C288.4,199.721 285.815,199.117 283.755,198.189Z" fill-rule="evenodd" fill="#000000"/>
<path d="M238.302,195.344C237.53,193.332 243.079,188 245.944,188C248.218,188 251,190.543 251,192.622C251,194.342 245.232,197 241.501,197C240.037,197 238.665,196.289 238.302,195.344Z" fill-rule="evenodd" fill="#000000"/>
<path d="M873.3,195.056C870.44,194.027 866.39,192.248 864.3,191.103C859.109,188.26 838.47,180.432 831.33,178.599C828.124,177.776 821.9,176.838 817.5,176.514C813.1,176.19 807.812,175.712 805.75,175.451C801.121,174.865 800.829,176.457 805.137,178.797C806.862,179.733 809.449,181.488 810.887,182.696C813.44,184.841 813.34,184.834 806.523,182.38C802.686,180.999 799.012,179.425 798.36,178.884C797.708,178.342 796.865,175.56 796.488,172.7C795.1,162.17 790.903,156.129 781.671,151.374C777.869,149.415 776.54,149.137 775.421,150.066C774.431,150.887 774,150.91 774,150.141C774,148.123 778.976,147.719 783.335,149.384C789.861,151.876 793.767,155.806 797.806,163.943C802.059,172.512 803.549,173.294 814.683,172.794L821.244,172.5L817.132,167.53C812.925,162.446 809.443,156.223 810.317,155.35C810.585,155.081 813.266,157.931 816.274,161.681C823.106,170.199 827.991,173.165 849.622,181.923C858.905,185.682 869.2,189.926 872.5,191.355C875.8,192.784 880.3,193.935 882.5,193.913C885.895,193.879 886.16,193.736 884.25,192.969C881.432,191.836 881.287,190.58 884.057,191.305C888.773,192.538 883.571,189.009 876.181,185.962C871.957,184.22 867.202,181.604 865.616,180.148C861.726,176.578 856.993,169.083 857.03,166.554C857.061,164.514 857.068,164.514 858.178,166.5C858.792,167.6 861.288,170.863 863.725,173.75C867.597,178.339 868.62,179 871.855,179C873.89,179 876.668,178.259 878.027,177.353C882.027,174.69 889.954,166.763 892.156,163.225C894.038,160.2 897.316,149.983 896.625,149.292C896.46,149.126 894.847,149.506 893.041,150.136C888.926,151.57 874.395,150.654 867.591,148.531C864.891,147.689 861.397,147 859.826,147C858.255,147 851.529,149.727 844.879,153.061C838.229,156.394 832.581,158.914 832.328,158.661C831.352,157.685 836.855,153.68 845,149.438C852.696,145.43 854.162,145.011 860.5,145.016C864.35,145.019 869.709,145.692 872.409,146.511C878.583,148.384 886.213,148.4 896.659,146.561C909.79,144.25 914.757,145.185 926.5,152.175C937.48,158.71 943.837,163.496 942.85,164.484C942.499,164.834 935.777,161.249 927.912,156.516C914.03,148.164 913.449,147.92 908.089,148.206C901.936,148.534 902.693,147.698 897.019,160.439C894.886,165.228 892.313,168.908 888.714,172.316C883.817,176.955 883.729,177.12 887.271,175.033C890.908,172.89 891.421,172.852 901.771,173.957C907.672,174.587 913.753,175.344 915.284,175.638C918.675,176.291 921.138,179.756 920.351,182.767C919.454,186.197 914.187,187.211 899.233,186.834C891.939,186.65 886.438,186.653 887.007,186.84C887.576,187.028 888.684,188.423 889.47,189.941C892.868,196.512 884.606,199.126 873.3,195.056Z" fill-rule="evenodd" fill="#000000"/>
<path d="M913.668,183.296C915.275,182.679 915.193,182.511 913,181.931L910.5,181.271L913,180.27L915.5,179.27L912.5,178.668C910.85,178.336 905.143,177.349 899.818,176.472L890.135,174.879L885.592,177.298C883.094,178.628 881.338,180.005 881.691,180.358C882.044,180.711 881.508,181 880.5,181C877.524,181 879.39,181.992 884.112,182.919C889.525,183.982 911.164,184.258 913.668,183.296Z" fill-rule="evenodd" fill="#000000"/>
<path d="M259.599,187.04C256.096,179.236 252.516,165.084 253.735,163.865C254.307,163.293 255.137,164.58 255.896,167.218C257.376,172.364 262.63,188.873 263.555,191.283C263.918,192.228 263.777,193 263.244,193C262.71,193 261.07,190.318 259.599,187.04Z" fill-rule="evenodd" fill="#000000"/>
<path d="M219.097,786.9C221.178,785.151 226.707,779.988 231.382,775.428C238.278,768.7 240.987,766.756 245.743,765.123C248.967,764.017 253.356,761.529 255.496,759.596C257.636,757.662 260.104,756.08 260.98,756.08C263.408,756.08 268.314,752.87 268.95,750.864C269.62,748.754 272.382,748.454 272.382,750.491C272.382,752.532 267.047,756.712 262.657,758.113C260.58,758.776 257.532,760.584 255.882,762.132C254.232,763.68 250.399,765.869 247.366,766.997C243.391,768.476 240.178,770.754 235.866,775.151C229.655,781.485 218.487,790.08 216.47,790.08C215.833,790.08 217.015,788.649 219.097,786.9Z" fill-rule="evenodd" fill="#000000"/>
<path d="M280,185.104C280,184.611 281.591,182.811 283.535,181.104C287.429,177.685 292.846,176.904 294.964,179.456C296.862,181.744 295.491,182.728 288.042,184.422C279.918,186.27 280,186.263 280,185.104Z" fill-rule="evenodd" fill="#000000"/>
<path d="M258.027,749.939C256.022,748.287 254.382,746.432 254.382,745.816C254.382,745.201 254.99,745.531 255.734,746.548C256.931,748.185 257.593,748.27 261.479,747.284C264.181,746.598 266.227,746.526 266.799,747.098C267.912,748.211 265.934,753.08 264.368,753.08C263.636,753.08 263.647,752.389 264.403,750.83L265.494,748.58L263.583,750.762L261.672,752.944L258.027,749.939Z" fill-rule="evenodd" fill="#000000"/>
<path d="M231.382,748.715C231.382,746.26 235.341,742.248 238.434,741.569C242.606,740.652 246.844,743.347 245.42,746.009C243.559,749.486 231.382,751.833 231.382,748.715Z" fill-rule="evenodd" fill="#000000"/>
<path d="M932.032,145.075C925.724,143.582 919.437,142.576 918.06,142.839C915.756,143.28 915.713,143.38 917.528,144.089C921.11,145.489 910.84,145.067 905.275,143.585C899.783,142.123 893,138.456 893,136.95C893,135.967 893.755,136.175 902.671,139.618C909.145,142.117 914.476,142.631 917,141C918.139,140.264 917.719,140.027 915.259,140.015C913.476,140.007 908.751,138.902 904.759,137.56C900.766,136.218 896.6,134.92 895.5,134.676C894,134.343 894.172,134.203 896.187,134.116C897.664,134.052 902.614,134.897 907.187,135.993C911.759,137.089 917.214,137.989 919.309,137.993C921.404,137.997 922.894,138.363 922.62,138.806C922.346,139.249 929.857,141.463 939.311,143.726C955.792,147.671 956.232,147.84 950,147.815C946.425,147.801 938.339,146.568 932.032,145.075Z" fill-rule="evenodd" fill="#000000"/>
<path d="M849.592,139.879L843.775,136.815L829.919,138.908C814.926,141.172 809,141.51 809,140.103C809,139.139 816.491,137.658 830.051,135.941C841.224,134.526 842.256,134.097 838.5,132.425C835.857,131.249 835.768,131.085 837.75,131.045C838.987,131.02 840.799,131.787 841.777,132.75C842.754,133.713 847.25,135.994 851.767,137.82C860.613,141.396 861.235,141.382 869.128,137.415C874.853,134.539 876.233,135.501 871.81,139.287C868.804,141.86 868.726,142.056 870.964,141.425C872.319,141.042 875.694,140.396 878.464,139.989C881.234,139.582 882.986,139.193 882.358,139.125C881.731,139.056 880.908,137.762 880.531,136.25C880.153,134.738 878.731,132.037 877.371,130.25L874.898,127L880.949,127C887.345,127 887.892,127.356 885.523,129.975C883.99,131.668 883.561,133.737 883.857,138C883.99,139.915 884.243,140.164 884.94,139.063C885.635,137.965 886.391,137.869 888.154,138.655L890.459,139.684L888.048,140.974C886.482,141.813 880.345,142.383 870.524,142.603L855.41,142.943L849.592,139.879Z" fill-rule="evenodd" fill="#000000"/>
<path d="M277.065,734.33C278.688,729.753 284.52,726.396 288.927,727.502C290.87,727.99 291.433,728.693 291.196,730.334C290.955,732.012 289.607,732.916 285.382,734.238C278.058,736.528 276.278,736.548 277.065,734.33Z" fill-rule="evenodd" fill="#000000"/>
<path d="M905.009,124.771C900.053,122.143 901.883,118.014 908.941,115.899C917.335,113.385 925.886,119.408 919.688,123.469C916.302,125.687 908.108,126.414 905.009,124.771Z" fill-rule="evenodd" fill="#000000"/>
<path d="M850.37,118.56C846.057,116.683 845.582,115.467 848.208,113.021C852.783,108.758 858.484,109.477 865.417,115.192C868.857,118.027 869.073,118.457 867.39,119.118C864.239,120.355 853.701,120.009 850.37,118.56Z" fill-rule="evenodd" fill="#000000"/>
<path d="M286.366,708.218C284.268,707.097 282.748,705.458 282.547,704.1C282.177,701.614 287.421,693.333 292.361,688.6L295.382,685.706L295.382,688.989C295.382,690.807 294.378,693.657 293.132,695.376C291.894,697.083 290.353,699.852 289.708,701.53C288.843,703.775 288.515,704.053 288.464,702.58C288.425,701.48 289.066,699.291 289.888,697.716C291.918,693.823 291.764,693.324 289.444,696.274C286.193,700.407 285.873,703.61 288.524,705.468C289.79,706.355 291.851,707.08 293.104,707.08C294.462,707.08 295.382,707.686 295.382,708.58C295.382,710.694 290.643,710.504 286.366,708.218Z" fill-rule="evenodd" fill="#000000"/>
<path d="M157.735,1075.05C148.737,1074.3 145.313,1072.26 148.197,1069.37C150.566,1067.01 157.32,1067.1 160.601,1069.55C162.827,1071.21 167.136,1076.36 165.872,1075.85C165.667,1075.77 162.006,1075.41 157.735,1075.05Z" fill-rule="evenodd" fill="#000000"/>
<path d="M160.5,1055.19C155.452,1053.55 153.722,1052.26 154.625,1050.8C155.377,1049.58 163,1049.85 163,1051.09C163,1051.79 161.504,1051.97 158.75,1051.59L154.5,1051.01L158.5,1052.58C161.24,1053.66 164.243,1053.98 168.036,1053.62C171.081,1053.32 174.674,1053.36 176.02,1053.72C178.067,1054.25 177.57,1054.57 172.984,1055.64C166.351,1057.18 166.693,1057.2 160.5,1055.19Z" fill-rule="evenodd" fill="#000000"/>
<path d="M962.591,929.005C961.71,928.031 960.544,926.118 960,924.755C959.129,922.572 958.989,922.515 958.829,924.275C958.729,925.375 958.735,926.725 958.842,927.275C958.95,927.825 957.748,927.044 956.171,925.539C954.288,923.743 951.445,922.451 947.895,921.778C941.838,920.629 938.434,918.007 936.259,912.814C934.936,909.655 934.973,909.132 936.686,906.838C938.665,904.187 942.366,902.747 944.884,903.647C945.931,904.021 945.634,904.361 943.899,904.771C940.242,905.635 938.283,909.696 939.496,913.895L940.472,917.275L942.178,913.872C943.116,912 943.884,909.664 943.884,908.681C943.884,906.286 945.476,905.439 947.626,906.691C949.233,907.627 949.239,907.717 947.693,907.745C946.763,907.762 945.681,908.295 945.288,908.93C944.851,909.637 945.013,909.813 945.705,909.385C946.327,909.001 948.084,909.398 949.61,910.268L952.384,911.849L948.537,911.502C945.185,911.199 944.566,911.481 943.724,913.694C943.193,915.092 942.237,916.557 941.6,916.951C939.4,918.31 942.071,919.276 948.217,919.342C953.784,919.402 956.652,918.45 956.455,916.609C956.416,916.242 956.793,915.567 957.294,915.109C957.823,914.625 957.903,914.799 957.485,915.525C957.031,916.315 957.385,916.775 958.447,916.775C959.765,916.775 959.88,917.074 958.981,918.159C958.095,919.225 958.182,919.676 959.358,920.127C960.355,920.51 960.884,920.126 960.884,919.021C960.884,917.734 961.297,917.92 962.615,919.802C963.567,921.161 964.354,922.948 964.365,923.774C964.396,926.233 968.933,926.303 969.573,923.854C969.872,922.711 970.503,921.775 970.975,921.775C971.446,921.775 972.53,920.425 973.384,918.775C974.237,917.125 975.38,915.775 975.924,915.775C977.176,915.775 972.455,923.245 968.497,927.525C965.01,931.295 964.728,931.366 962.591,929.005Z" fill-rule="evenodd" fill="#000000"/>
<path d="M1073.22,500.038C1072.25,498.835 1071.67,497.291 1071.93,496.606C1072.2,495.921 1071.51,494.73 1070.41,493.958C1068.65,492.724 1068.6,492.48 1070.03,491.931C1070.93,491.587 1073.64,491.306 1076.07,491.306L1080.48,491.306L1078.84,495.556C1076.43,501.819 1075.36,502.674 1073.22,500.038Z" fill-rule="evenodd" fill="#000000"/>
</g>
</svg>
